G04 EAGLE Gerber RS-274X export*
G75*
%MOMM*%
%FSLAX34Y34*%
%LPD*%
%INMechanical*%
%IPPOS*%
%AMOC8*
5,1,8,0,0,1.08239X$1,22.5*%
G01*
%ADD10C,0.000000*%
%ADD11C,0.254000*%


D10*
X700000Y30000D02*
X700000Y490000D01*
X699991Y490725D01*
X699965Y491449D01*
X699921Y492173D01*
X699860Y492895D01*
X699781Y493616D01*
X699685Y494335D01*
X699572Y495051D01*
X699441Y495764D01*
X699293Y496474D01*
X699128Y497179D01*
X698946Y497881D01*
X698747Y498578D01*
X698532Y499271D01*
X698299Y499957D01*
X698050Y500638D01*
X697785Y501313D01*
X697504Y501981D01*
X697206Y502642D01*
X696893Y503296D01*
X696564Y503942D01*
X696219Y504580D01*
X695859Y505209D01*
X695484Y505829D01*
X695094Y506440D01*
X694690Y507042D01*
X694271Y507634D01*
X693837Y508215D01*
X693390Y508786D01*
X692929Y509345D01*
X692455Y509894D01*
X691968Y510430D01*
X691468Y510955D01*
X690955Y511468D01*
X690430Y511968D01*
X689894Y512455D01*
X689345Y512929D01*
X688786Y513390D01*
X688215Y513837D01*
X687634Y514271D01*
X687042Y514690D01*
X686440Y515094D01*
X685829Y515484D01*
X685209Y515859D01*
X684580Y516219D01*
X683942Y516564D01*
X683296Y516893D01*
X682642Y517206D01*
X681981Y517504D01*
X681313Y517785D01*
X680638Y518050D01*
X679957Y518299D01*
X679271Y518532D01*
X678578Y518747D01*
X677881Y518946D01*
X677179Y519128D01*
X676474Y519293D01*
X675764Y519441D01*
X675051Y519572D01*
X674335Y519685D01*
X673616Y519781D01*
X672895Y519860D01*
X672173Y519921D01*
X671449Y519965D01*
X670725Y519991D01*
X670000Y520000D01*
X30000Y520000D01*
X29275Y519991D01*
X28551Y519965D01*
X27827Y519921D01*
X27105Y519860D01*
X26384Y519781D01*
X25665Y519685D01*
X24949Y519572D01*
X24236Y519441D01*
X23526Y519293D01*
X22821Y519128D01*
X22119Y518946D01*
X21422Y518747D01*
X20729Y518532D01*
X20043Y518299D01*
X19362Y518050D01*
X18687Y517785D01*
X18019Y517504D01*
X17358Y517206D01*
X16704Y516893D01*
X16058Y516564D01*
X15420Y516219D01*
X14791Y515859D01*
X14171Y515484D01*
X13560Y515094D01*
X12958Y514690D01*
X12366Y514271D01*
X11785Y513837D01*
X11214Y513390D01*
X10655Y512929D01*
X10106Y512455D01*
X9570Y511968D01*
X9045Y511468D01*
X8532Y510955D01*
X8032Y510430D01*
X7545Y509894D01*
X7071Y509345D01*
X6610Y508786D01*
X6163Y508215D01*
X5729Y507634D01*
X5310Y507042D01*
X4906Y506440D01*
X4516Y505829D01*
X4141Y505209D01*
X3781Y504580D01*
X3436Y503942D01*
X3107Y503296D01*
X2794Y502642D01*
X2496Y501981D01*
X2215Y501313D01*
X1950Y500638D01*
X1701Y499957D01*
X1468Y499271D01*
X1253Y498578D01*
X1054Y497881D01*
X872Y497179D01*
X707Y496474D01*
X559Y495764D01*
X428Y495051D01*
X315Y494335D01*
X219Y493616D01*
X140Y492895D01*
X79Y492173D01*
X35Y491449D01*
X9Y490725D01*
X0Y490000D01*
X0Y30000D01*
X9Y29275D01*
X35Y28551D01*
X79Y27827D01*
X140Y27105D01*
X219Y26384D01*
X315Y25665D01*
X428Y24949D01*
X559Y24236D01*
X707Y23526D01*
X872Y22821D01*
X1054Y22119D01*
X1253Y21422D01*
X1468Y20729D01*
X1701Y20043D01*
X1950Y19362D01*
X2215Y18687D01*
X2496Y18019D01*
X2794Y17358D01*
X3107Y16704D01*
X3436Y16058D01*
X3781Y15420D01*
X4141Y14791D01*
X4516Y14171D01*
X4906Y13560D01*
X5310Y12958D01*
X5729Y12366D01*
X6163Y11785D01*
X6610Y11214D01*
X7071Y10655D01*
X7545Y10106D01*
X8032Y9570D01*
X8532Y9045D01*
X9045Y8532D01*
X9570Y8032D01*
X10106Y7545D01*
X10655Y7071D01*
X11214Y6610D01*
X11785Y6163D01*
X12366Y5729D01*
X12958Y5310D01*
X13560Y4906D01*
X14171Y4516D01*
X14791Y4141D01*
X15420Y3781D01*
X16058Y3436D01*
X16704Y3107D01*
X17358Y2794D01*
X18019Y2496D01*
X18687Y2215D01*
X19362Y1950D01*
X20043Y1701D01*
X20729Y1468D01*
X21422Y1253D01*
X22119Y1054D01*
X22821Y872D01*
X23526Y707D01*
X24236Y559D01*
X24949Y428D01*
X25665Y315D01*
X26384Y219D01*
X27105Y140D01*
X27827Y79D01*
X28551Y35D01*
X29275Y9D01*
X30000Y0D01*
X670000Y0D01*
X670725Y9D01*
X671449Y35D01*
X672173Y79D01*
X672895Y140D01*
X673616Y219D01*
X674335Y315D01*
X675051Y428D01*
X675764Y559D01*
X676474Y707D01*
X677179Y872D01*
X677881Y1054D01*
X678578Y1253D01*
X679271Y1468D01*
X679957Y1701D01*
X680638Y1950D01*
X681313Y2215D01*
X681981Y2496D01*
X682642Y2794D01*
X683296Y3107D01*
X683942Y3436D01*
X684580Y3781D01*
X685209Y4141D01*
X685829Y4516D01*
X686440Y4906D01*
X687042Y5310D01*
X687634Y5729D01*
X688215Y6163D01*
X688786Y6610D01*
X689345Y7071D01*
X689894Y7545D01*
X690430Y8032D01*
X690955Y8532D01*
X691468Y9045D01*
X691968Y9570D01*
X692455Y10106D01*
X692929Y10655D01*
X693390Y11214D01*
X693837Y11785D01*
X694271Y12366D01*
X694690Y12958D01*
X695094Y13560D01*
X695484Y14171D01*
X695859Y14791D01*
X696219Y15420D01*
X696564Y16058D01*
X696893Y16704D01*
X697206Y17358D01*
X697504Y18019D01*
X697785Y18687D01*
X698050Y19362D01*
X698299Y20043D01*
X698532Y20729D01*
X698747Y21422D01*
X698946Y22119D01*
X699128Y22821D01*
X699293Y23526D01*
X699441Y24236D01*
X699572Y24949D01*
X699685Y25665D01*
X699781Y26384D01*
X699860Y27105D01*
X699921Y27827D01*
X699965Y28551D01*
X699991Y29275D01*
X700000Y30000D01*
D11*
X0Y30000D02*
X114Y27385D01*
X456Y24791D01*
X1022Y22235D01*
X1809Y19739D01*
X2811Y17321D01*
X4019Y15000D01*
X5425Y12793D01*
X7019Y10716D01*
X8787Y8787D01*
X10716Y7019D01*
X12793Y5425D01*
X15000Y4019D01*
X17321Y2811D01*
X19739Y1809D01*
X22235Y1022D01*
X24791Y456D01*
X27385Y114D01*
X30000Y0D01*
X670000Y0D01*
X672615Y114D01*
X675209Y456D01*
X677765Y1022D01*
X680261Y1809D01*
X682679Y2811D01*
X685000Y4019D01*
X687207Y5425D01*
X689284Y7019D01*
X691213Y8787D01*
X692981Y10716D01*
X694575Y12793D01*
X695981Y15000D01*
X697189Y17321D01*
X698191Y19739D01*
X698978Y22235D01*
X699544Y24791D01*
X699886Y27385D01*
X700000Y30000D01*
X700000Y490000D01*
X699886Y492615D01*
X699544Y495209D01*
X698978Y497765D01*
X698191Y500261D01*
X697189Y502679D01*
X695981Y505000D01*
X694575Y507207D01*
X692981Y509284D01*
X691213Y511213D01*
X689284Y512981D01*
X687207Y514575D01*
X685000Y515981D01*
X682679Y517189D01*
X680261Y518191D01*
X677765Y518978D01*
X675209Y519544D01*
X672615Y519886D01*
X670000Y520000D01*
X30000Y520000D01*
X27385Y519886D01*
X24791Y519544D01*
X22235Y518978D01*
X19739Y518191D01*
X17321Y517189D01*
X15000Y515981D01*
X12793Y514575D01*
X10716Y512981D01*
X8787Y511213D01*
X7019Y509284D01*
X5425Y507207D01*
X4019Y505000D01*
X2811Y502679D01*
X1809Y500261D01*
X1022Y497765D01*
X456Y495209D01*
X114Y492615D01*
X0Y490000D01*
X0Y30000D01*
M02*
