G04 EAGLE Gerber RS-274X export*
G75*
%MOMM*%
%FSLAX34Y34*%
%LPD*%
%INSolderpaste Top*%
%IPPOS*%
%AMOC8*
5,1,8,0,0,1.08239X$1,22.5*%
G01*
%ADD10R,3.200000X1.300000*%
%ADD11R,1.300000X1.500000*%
%ADD12R,1.500000X1.300000*%
%ADD13R,1.400000X1.000000*%
%ADD14R,1.000000X2.750000*%
%ADD15R,1.100000X1.500000*%
%ADD16R,1.000000X1.400000*%


D10*
X393700Y280350D03*
X393700Y367350D03*
D11*
X663550Y469900D03*
X644550Y469900D03*
X669900Y323850D03*
X650900Y323850D03*
X669900Y171450D03*
X650900Y171450D03*
D12*
X406400Y225450D03*
X406400Y244450D03*
X431800Y225450D03*
X431800Y244450D03*
X457200Y225450D03*
X457200Y244450D03*
X285750Y161900D03*
X285750Y142900D03*
X349250Y130200D03*
X349250Y149200D03*
D11*
X308000Y88900D03*
X327000Y88900D03*
X225450Y190500D03*
X244450Y190500D03*
X225450Y215900D03*
X244450Y215900D03*
X225450Y241300D03*
X244450Y241300D03*
X225450Y266700D03*
X244450Y266700D03*
X225450Y292100D03*
X244450Y292100D03*
X225450Y317500D03*
X244450Y317500D03*
X225450Y342900D03*
X244450Y342900D03*
X225450Y368300D03*
X244450Y368300D03*
D13*
X188800Y136550D03*
X188800Y155550D03*
X166800Y146050D03*
X188800Y98450D03*
X188800Y117450D03*
X166800Y107950D03*
X188800Y60350D03*
X188800Y79350D03*
X166800Y69850D03*
X188800Y22250D03*
X188800Y41250D03*
X166800Y31750D03*
D14*
X640400Y384000D03*
X680400Y384000D03*
X680400Y441500D03*
X640400Y441500D03*
X640400Y231600D03*
X680400Y231600D03*
X680400Y289100D03*
X640400Y289100D03*
X640400Y79200D03*
X680400Y79200D03*
X680400Y136700D03*
X640400Y136700D03*
D15*
X310000Y154700D03*
X310000Y124700D03*
X325000Y124700D03*
X325000Y154700D03*
D16*
X441300Y417400D03*
X422300Y417400D03*
X431800Y395400D03*
D12*
X457200Y295300D03*
X457200Y314300D03*
D11*
X225450Y139700D03*
X244450Y139700D03*
X225450Y63500D03*
X244450Y63500D03*
X225450Y101600D03*
X244450Y101600D03*
X225450Y25400D03*
X244450Y25400D03*
D12*
X463550Y409550D03*
X463550Y390550D03*
M02*
