G04 EAGLE Gerber RS-274X export*
G75*
%MOMM*%
%FSLAX34Y34*%
%LPD*%
%INSilkscreen Bottom*%
%IPPOS*%
%AMOC8*
5,1,8,0,0,1.08239X$1,22.5*%
G01*
%ADD10C,0.152400*%


D10*
X364336Y446532D02*
X371561Y446532D01*
X371561Y462788D01*
X364336Y462788D01*
X366142Y455563D02*
X371561Y455563D01*
X354992Y446532D02*
X351379Y446532D01*
X354992Y446532D02*
X355110Y446534D01*
X355228Y446540D01*
X355346Y446549D01*
X355463Y446563D01*
X355580Y446580D01*
X355697Y446601D01*
X355812Y446626D01*
X355927Y446655D01*
X356041Y446688D01*
X356153Y446724D01*
X356264Y446764D01*
X356374Y446807D01*
X356483Y446854D01*
X356590Y446904D01*
X356695Y446959D01*
X356798Y447016D01*
X356899Y447077D01*
X356999Y447141D01*
X357096Y447208D01*
X357191Y447278D01*
X357283Y447352D01*
X357374Y447428D01*
X357461Y447508D01*
X357546Y447590D01*
X357628Y447675D01*
X357708Y447762D01*
X357784Y447853D01*
X357858Y447945D01*
X357928Y448040D01*
X357995Y448137D01*
X358059Y448237D01*
X358120Y448338D01*
X358177Y448441D01*
X358232Y448546D01*
X358282Y448653D01*
X358329Y448762D01*
X358372Y448872D01*
X358412Y448983D01*
X358448Y449095D01*
X358481Y449209D01*
X358510Y449324D01*
X358535Y449439D01*
X358556Y449556D01*
X358573Y449673D01*
X358587Y449790D01*
X358596Y449908D01*
X358602Y450026D01*
X358604Y450144D01*
X358604Y459176D01*
X358602Y459294D01*
X358596Y459412D01*
X358587Y459530D01*
X358573Y459647D01*
X358556Y459764D01*
X358535Y459881D01*
X358510Y459996D01*
X358481Y460111D01*
X358448Y460225D01*
X358412Y460337D01*
X358372Y460448D01*
X358329Y460558D01*
X358282Y460667D01*
X358232Y460774D01*
X358177Y460879D01*
X358120Y460982D01*
X358059Y461083D01*
X357995Y461183D01*
X357928Y461280D01*
X357858Y461375D01*
X357784Y461467D01*
X357708Y461558D01*
X357628Y461645D01*
X357546Y461730D01*
X357461Y461812D01*
X357374Y461892D01*
X357283Y461968D01*
X357191Y462042D01*
X357096Y462112D01*
X356999Y462179D01*
X356899Y462243D01*
X356798Y462304D01*
X356695Y462361D01*
X356590Y462416D01*
X356483Y462466D01*
X356374Y462513D01*
X356264Y462556D01*
X356153Y462596D01*
X356041Y462632D01*
X355927Y462665D01*
X355812Y462694D01*
X355697Y462719D01*
X355580Y462740D01*
X355463Y462757D01*
X355346Y462771D01*
X355228Y462780D01*
X355110Y462786D01*
X354992Y462788D01*
X351379Y462788D01*
X344988Y446532D02*
X337763Y446532D01*
X344988Y446532D02*
X344988Y462788D01*
X337763Y462788D01*
X339569Y455563D02*
X344988Y455563D01*
X323655Y446532D02*
X319140Y446532D01*
X319007Y446534D01*
X318875Y446540D01*
X318743Y446550D01*
X318611Y446563D01*
X318479Y446581D01*
X318349Y446602D01*
X318218Y446627D01*
X318089Y446656D01*
X317961Y446689D01*
X317833Y446725D01*
X317707Y446765D01*
X317582Y446809D01*
X317458Y446857D01*
X317336Y446908D01*
X317215Y446963D01*
X317096Y447021D01*
X316978Y447083D01*
X316863Y447148D01*
X316749Y447217D01*
X316638Y447288D01*
X316529Y447364D01*
X316422Y447442D01*
X316317Y447523D01*
X316215Y447608D01*
X316115Y447695D01*
X316018Y447785D01*
X315923Y447878D01*
X315832Y447974D01*
X315743Y448072D01*
X315657Y448173D01*
X315574Y448277D01*
X315494Y448383D01*
X315418Y448491D01*
X315344Y448601D01*
X315274Y448714D01*
X315207Y448828D01*
X315144Y448945D01*
X315084Y449063D01*
X315027Y449183D01*
X314974Y449305D01*
X314925Y449428D01*
X314879Y449552D01*
X314837Y449678D01*
X314799Y449805D01*
X314764Y449933D01*
X314733Y450062D01*
X314706Y450191D01*
X314683Y450322D01*
X314663Y450453D01*
X314648Y450585D01*
X314636Y450717D01*
X314628Y450849D01*
X314624Y450982D01*
X314624Y451114D01*
X314628Y451247D01*
X314636Y451379D01*
X314648Y451511D01*
X314663Y451643D01*
X314683Y451774D01*
X314706Y451905D01*
X314733Y452034D01*
X314764Y452163D01*
X314799Y452291D01*
X314837Y452418D01*
X314879Y452544D01*
X314925Y452668D01*
X314974Y452791D01*
X315027Y452913D01*
X315084Y453033D01*
X315144Y453151D01*
X315207Y453268D01*
X315274Y453382D01*
X315344Y453495D01*
X315418Y453605D01*
X315494Y453713D01*
X315574Y453819D01*
X315657Y453923D01*
X315743Y454024D01*
X315832Y454122D01*
X315923Y454218D01*
X316018Y454311D01*
X316115Y454401D01*
X316215Y454488D01*
X316317Y454573D01*
X316422Y454654D01*
X316529Y454732D01*
X316638Y454808D01*
X316749Y454879D01*
X316863Y454948D01*
X316978Y455013D01*
X317096Y455075D01*
X317215Y455133D01*
X317336Y455188D01*
X317458Y455239D01*
X317582Y455287D01*
X317707Y455331D01*
X317833Y455371D01*
X317961Y455407D01*
X318089Y455440D01*
X318218Y455469D01*
X318349Y455494D01*
X318479Y455515D01*
X318611Y455533D01*
X318743Y455546D01*
X318875Y455556D01*
X319007Y455562D01*
X319140Y455564D01*
X318236Y462788D02*
X323655Y462788D01*
X318236Y462788D02*
X318117Y462786D01*
X317997Y462780D01*
X317878Y462770D01*
X317760Y462756D01*
X317641Y462739D01*
X317524Y462717D01*
X317407Y462692D01*
X317292Y462662D01*
X317177Y462629D01*
X317063Y462592D01*
X316951Y462552D01*
X316840Y462507D01*
X316731Y462459D01*
X316623Y462408D01*
X316517Y462353D01*
X316413Y462294D01*
X316311Y462232D01*
X316211Y462167D01*
X316113Y462098D01*
X316017Y462026D01*
X315924Y461951D01*
X315834Y461874D01*
X315746Y461793D01*
X315661Y461709D01*
X315579Y461622D01*
X315499Y461533D01*
X315423Y461441D01*
X315349Y461347D01*
X315279Y461250D01*
X315212Y461152D01*
X315148Y461051D01*
X315088Y460947D01*
X315031Y460842D01*
X314978Y460735D01*
X314928Y460627D01*
X314882Y460517D01*
X314840Y460405D01*
X314801Y460292D01*
X314766Y460178D01*
X314735Y460063D01*
X314707Y459946D01*
X314684Y459829D01*
X314664Y459712D01*
X314648Y459593D01*
X314636Y459474D01*
X314628Y459355D01*
X314624Y459236D01*
X314624Y459116D01*
X314628Y458997D01*
X314636Y458878D01*
X314648Y458759D01*
X314664Y458640D01*
X314684Y458523D01*
X314707Y458406D01*
X314735Y458289D01*
X314766Y458174D01*
X314801Y458060D01*
X314840Y457947D01*
X314882Y457835D01*
X314928Y457725D01*
X314978Y457617D01*
X315031Y457510D01*
X315088Y457405D01*
X315148Y457301D01*
X315212Y457200D01*
X315279Y457102D01*
X315349Y457005D01*
X315423Y456911D01*
X315499Y456819D01*
X315579Y456730D01*
X315661Y456643D01*
X315746Y456559D01*
X315834Y456478D01*
X315924Y456401D01*
X316017Y456326D01*
X316113Y456254D01*
X316211Y456185D01*
X316311Y456120D01*
X316413Y456058D01*
X316517Y455999D01*
X316623Y455944D01*
X316731Y455893D01*
X316840Y455845D01*
X316951Y455800D01*
X317063Y455760D01*
X317177Y455723D01*
X317292Y455690D01*
X317407Y455660D01*
X317524Y455635D01*
X317641Y455613D01*
X317760Y455596D01*
X317878Y455582D01*
X317997Y455572D01*
X318117Y455566D01*
X318236Y455564D01*
X318236Y455563D02*
X321849Y455563D01*
X303057Y462788D02*
X302932Y462786D01*
X302807Y462780D01*
X302682Y462771D01*
X302558Y462757D01*
X302434Y462740D01*
X302310Y462719D01*
X302188Y462694D01*
X302066Y462665D01*
X301945Y462633D01*
X301825Y462597D01*
X301706Y462557D01*
X301589Y462514D01*
X301473Y462467D01*
X301358Y462416D01*
X301246Y462362D01*
X301134Y462304D01*
X301025Y462244D01*
X300918Y462179D01*
X300812Y462112D01*
X300709Y462041D01*
X300608Y461967D01*
X300509Y461890D01*
X300413Y461810D01*
X300319Y461727D01*
X300228Y461642D01*
X300139Y461553D01*
X300054Y461462D01*
X299971Y461368D01*
X299891Y461272D01*
X299814Y461173D01*
X299740Y461072D01*
X299669Y460969D01*
X299602Y460863D01*
X299537Y460756D01*
X299477Y460647D01*
X299419Y460535D01*
X299365Y460423D01*
X299314Y460308D01*
X299267Y460192D01*
X299224Y460075D01*
X299184Y459956D01*
X299148Y459836D01*
X299116Y459715D01*
X299087Y459593D01*
X299062Y459471D01*
X299041Y459347D01*
X299024Y459223D01*
X299010Y459099D01*
X299001Y458974D01*
X298995Y458849D01*
X298993Y458724D01*
X303057Y462788D02*
X303200Y462786D01*
X303342Y462780D01*
X303485Y462770D01*
X303627Y462757D01*
X303768Y462739D01*
X303910Y462718D01*
X304050Y462693D01*
X304190Y462664D01*
X304329Y462631D01*
X304467Y462594D01*
X304604Y462554D01*
X304739Y462510D01*
X304874Y462462D01*
X305007Y462410D01*
X305139Y462355D01*
X305269Y462296D01*
X305397Y462234D01*
X305524Y462168D01*
X305649Y462099D01*
X305772Y462027D01*
X305893Y461951D01*
X306011Y461872D01*
X306128Y461789D01*
X306242Y461704D01*
X306354Y461615D01*
X306463Y461524D01*
X306570Y461429D01*
X306675Y461332D01*
X306776Y461231D01*
X306875Y461128D01*
X306971Y461023D01*
X307064Y460914D01*
X307154Y460803D01*
X307241Y460690D01*
X307325Y460575D01*
X307405Y460457D01*
X307483Y460337D01*
X307557Y460215D01*
X307627Y460091D01*
X307695Y459965D01*
X307758Y459837D01*
X307819Y459708D01*
X307876Y459577D01*
X307929Y459445D01*
X307978Y459311D01*
X308024Y459176D01*
X300348Y455563D02*
X300254Y455655D01*
X300164Y455749D01*
X300076Y455846D01*
X299991Y455946D01*
X299909Y456048D01*
X299830Y456153D01*
X299755Y456260D01*
X299683Y456369D01*
X299614Y456480D01*
X299548Y456594D01*
X299486Y456709D01*
X299427Y456826D01*
X299372Y456945D01*
X299321Y457065D01*
X299273Y457187D01*
X299228Y457310D01*
X299188Y457434D01*
X299151Y457560D01*
X299118Y457687D01*
X299089Y457814D01*
X299063Y457943D01*
X299042Y458072D01*
X299024Y458202D01*
X299011Y458332D01*
X299001Y458462D01*
X298995Y458593D01*
X298993Y458724D01*
X300347Y455563D02*
X308024Y446532D01*
X298993Y446532D01*
X292393Y451048D02*
X292391Y451181D01*
X292385Y451313D01*
X292375Y451445D01*
X292362Y451577D01*
X292344Y451709D01*
X292323Y451839D01*
X292298Y451970D01*
X292269Y452099D01*
X292236Y452227D01*
X292200Y452355D01*
X292160Y452481D01*
X292116Y452606D01*
X292068Y452730D01*
X292017Y452852D01*
X291962Y452973D01*
X291904Y453092D01*
X291842Y453210D01*
X291777Y453325D01*
X291708Y453439D01*
X291637Y453550D01*
X291561Y453659D01*
X291483Y453766D01*
X291402Y453871D01*
X291317Y453973D01*
X291230Y454073D01*
X291140Y454170D01*
X291047Y454265D01*
X290951Y454356D01*
X290853Y454445D01*
X290752Y454531D01*
X290648Y454614D01*
X290542Y454694D01*
X290434Y454770D01*
X290324Y454844D01*
X290211Y454914D01*
X290097Y454981D01*
X289980Y455044D01*
X289862Y455104D01*
X289742Y455161D01*
X289620Y455214D01*
X289497Y455263D01*
X289373Y455309D01*
X289247Y455351D01*
X289120Y455389D01*
X288992Y455424D01*
X288863Y455455D01*
X288734Y455482D01*
X288603Y455505D01*
X288472Y455525D01*
X288340Y455540D01*
X288208Y455552D01*
X288076Y455560D01*
X287943Y455564D01*
X287811Y455564D01*
X287678Y455560D01*
X287546Y455552D01*
X287414Y455540D01*
X287282Y455525D01*
X287151Y455505D01*
X287020Y455482D01*
X286891Y455455D01*
X286762Y455424D01*
X286634Y455389D01*
X286507Y455351D01*
X286381Y455309D01*
X286257Y455263D01*
X286134Y455214D01*
X286012Y455161D01*
X285892Y455104D01*
X285774Y455044D01*
X285657Y454981D01*
X285543Y454914D01*
X285430Y454844D01*
X285320Y454770D01*
X285212Y454694D01*
X285106Y454614D01*
X285002Y454531D01*
X284901Y454445D01*
X284803Y454356D01*
X284707Y454265D01*
X284614Y454170D01*
X284524Y454073D01*
X284437Y453973D01*
X284352Y453871D01*
X284271Y453766D01*
X284193Y453659D01*
X284117Y453550D01*
X284046Y453439D01*
X283977Y453325D01*
X283912Y453210D01*
X283850Y453092D01*
X283792Y452973D01*
X283737Y452852D01*
X283686Y452730D01*
X283638Y452606D01*
X283594Y452481D01*
X283554Y452355D01*
X283518Y452227D01*
X283485Y452099D01*
X283456Y451970D01*
X283431Y451839D01*
X283410Y451709D01*
X283392Y451577D01*
X283379Y451445D01*
X283369Y451313D01*
X283363Y451181D01*
X283361Y451048D01*
X283363Y450915D01*
X283369Y450783D01*
X283379Y450651D01*
X283392Y450519D01*
X283410Y450387D01*
X283431Y450257D01*
X283456Y450126D01*
X283485Y449997D01*
X283518Y449869D01*
X283554Y449741D01*
X283594Y449615D01*
X283638Y449490D01*
X283686Y449366D01*
X283737Y449244D01*
X283792Y449123D01*
X283850Y449004D01*
X283912Y448886D01*
X283977Y448771D01*
X284046Y448657D01*
X284117Y448546D01*
X284193Y448437D01*
X284271Y448330D01*
X284352Y448225D01*
X284437Y448123D01*
X284524Y448023D01*
X284614Y447926D01*
X284707Y447831D01*
X284803Y447740D01*
X284901Y447651D01*
X285002Y447565D01*
X285106Y447482D01*
X285212Y447402D01*
X285320Y447326D01*
X285430Y447252D01*
X285543Y447182D01*
X285657Y447115D01*
X285774Y447052D01*
X285892Y446992D01*
X286012Y446935D01*
X286134Y446882D01*
X286257Y446833D01*
X286381Y446787D01*
X286507Y446745D01*
X286634Y446707D01*
X286762Y446672D01*
X286891Y446641D01*
X287020Y446614D01*
X287151Y446591D01*
X287282Y446571D01*
X287414Y446556D01*
X287546Y446544D01*
X287678Y446536D01*
X287811Y446532D01*
X287943Y446532D01*
X288076Y446536D01*
X288208Y446544D01*
X288340Y446556D01*
X288472Y446571D01*
X288603Y446591D01*
X288734Y446614D01*
X288863Y446641D01*
X288992Y446672D01*
X289120Y446707D01*
X289247Y446745D01*
X289373Y446787D01*
X289497Y446833D01*
X289620Y446882D01*
X289742Y446935D01*
X289862Y446992D01*
X289980Y447052D01*
X290097Y447115D01*
X290211Y447182D01*
X290324Y447252D01*
X290434Y447326D01*
X290542Y447402D01*
X290648Y447482D01*
X290752Y447565D01*
X290853Y447651D01*
X290951Y447740D01*
X291047Y447831D01*
X291140Y447926D01*
X291230Y448023D01*
X291317Y448123D01*
X291402Y448225D01*
X291483Y448330D01*
X291561Y448437D01*
X291637Y448546D01*
X291708Y448657D01*
X291777Y448771D01*
X291842Y448886D01*
X291904Y449004D01*
X291962Y449123D01*
X292017Y449244D01*
X292068Y449366D01*
X292116Y449490D01*
X292160Y449615D01*
X292200Y449741D01*
X292236Y449869D01*
X292269Y449997D01*
X292298Y450126D01*
X292323Y450257D01*
X292344Y450387D01*
X292362Y450519D01*
X292375Y450651D01*
X292385Y450783D01*
X292391Y450915D01*
X292393Y451048D01*
X291489Y459176D02*
X291487Y459295D01*
X291481Y459415D01*
X291471Y459534D01*
X291457Y459652D01*
X291440Y459771D01*
X291418Y459888D01*
X291393Y460005D01*
X291363Y460120D01*
X291330Y460235D01*
X291293Y460349D01*
X291253Y460461D01*
X291208Y460572D01*
X291160Y460681D01*
X291109Y460789D01*
X291054Y460895D01*
X290995Y460999D01*
X290933Y461101D01*
X290868Y461201D01*
X290799Y461299D01*
X290727Y461395D01*
X290652Y461488D01*
X290575Y461578D01*
X290494Y461666D01*
X290410Y461751D01*
X290323Y461833D01*
X290234Y461913D01*
X290142Y461989D01*
X290048Y462063D01*
X289951Y462133D01*
X289853Y462200D01*
X289752Y462264D01*
X289648Y462324D01*
X289543Y462381D01*
X289436Y462434D01*
X289328Y462484D01*
X289218Y462530D01*
X289106Y462572D01*
X288993Y462611D01*
X288879Y462646D01*
X288764Y462677D01*
X288647Y462705D01*
X288530Y462728D01*
X288413Y462748D01*
X288294Y462764D01*
X288175Y462776D01*
X288056Y462784D01*
X287937Y462788D01*
X287817Y462788D01*
X287698Y462784D01*
X287579Y462776D01*
X287460Y462764D01*
X287341Y462748D01*
X287224Y462728D01*
X287107Y462705D01*
X286990Y462677D01*
X286875Y462646D01*
X286761Y462611D01*
X286648Y462572D01*
X286536Y462530D01*
X286426Y462484D01*
X286318Y462434D01*
X286211Y462381D01*
X286106Y462324D01*
X286002Y462264D01*
X285901Y462200D01*
X285803Y462133D01*
X285706Y462063D01*
X285612Y461989D01*
X285520Y461913D01*
X285431Y461833D01*
X285344Y461751D01*
X285260Y461666D01*
X285179Y461578D01*
X285102Y461488D01*
X285027Y461395D01*
X284955Y461299D01*
X284886Y461201D01*
X284821Y461101D01*
X284759Y460999D01*
X284700Y460895D01*
X284645Y460789D01*
X284594Y460681D01*
X284546Y460572D01*
X284501Y460461D01*
X284461Y460349D01*
X284424Y460235D01*
X284391Y460120D01*
X284361Y460005D01*
X284336Y459888D01*
X284314Y459771D01*
X284297Y459652D01*
X284283Y459534D01*
X284273Y459415D01*
X284267Y459295D01*
X284265Y459176D01*
X284267Y459057D01*
X284273Y458937D01*
X284283Y458818D01*
X284297Y458700D01*
X284314Y458581D01*
X284336Y458464D01*
X284361Y458347D01*
X284391Y458232D01*
X284424Y458117D01*
X284461Y458003D01*
X284501Y457891D01*
X284546Y457780D01*
X284594Y457671D01*
X284645Y457563D01*
X284700Y457457D01*
X284759Y457353D01*
X284821Y457251D01*
X284886Y457151D01*
X284955Y457053D01*
X285027Y456957D01*
X285102Y456864D01*
X285179Y456774D01*
X285260Y456686D01*
X285344Y456601D01*
X285431Y456519D01*
X285520Y456439D01*
X285612Y456363D01*
X285706Y456289D01*
X285803Y456219D01*
X285901Y456152D01*
X286002Y456088D01*
X286106Y456028D01*
X286211Y455971D01*
X286318Y455918D01*
X286426Y455868D01*
X286536Y455822D01*
X286648Y455780D01*
X286761Y455741D01*
X286875Y455706D01*
X286990Y455675D01*
X287107Y455647D01*
X287224Y455624D01*
X287341Y455604D01*
X287460Y455588D01*
X287579Y455576D01*
X287698Y455568D01*
X287817Y455564D01*
X287937Y455564D01*
X288056Y455568D01*
X288175Y455576D01*
X288294Y455588D01*
X288413Y455604D01*
X288530Y455624D01*
X288647Y455647D01*
X288764Y455675D01*
X288879Y455706D01*
X288993Y455741D01*
X289106Y455780D01*
X289218Y455822D01*
X289328Y455868D01*
X289436Y455918D01*
X289543Y455971D01*
X289648Y456028D01*
X289752Y456088D01*
X289853Y456152D01*
X289951Y456219D01*
X290048Y456289D01*
X290142Y456363D01*
X290234Y456439D01*
X290323Y456519D01*
X290410Y456601D01*
X290494Y456686D01*
X290575Y456774D01*
X290652Y456864D01*
X290727Y456957D01*
X290799Y457053D01*
X290868Y457151D01*
X290933Y457251D01*
X290995Y457353D01*
X291054Y457457D01*
X291109Y457563D01*
X291160Y457671D01*
X291208Y457780D01*
X291253Y457891D01*
X291293Y458003D01*
X291330Y458117D01*
X291363Y458232D01*
X291393Y458347D01*
X291418Y458464D01*
X291440Y458581D01*
X291457Y458700D01*
X291471Y458818D01*
X291481Y458937D01*
X291487Y459057D01*
X291489Y459176D01*
X276306Y457369D02*
X276306Y441113D01*
X276306Y457369D02*
X271791Y457369D01*
X271687Y457367D01*
X271584Y457361D01*
X271480Y457351D01*
X271377Y457337D01*
X271275Y457319D01*
X271174Y457298D01*
X271073Y457272D01*
X270974Y457243D01*
X270875Y457210D01*
X270778Y457173D01*
X270683Y457132D01*
X270589Y457088D01*
X270497Y457040D01*
X270407Y456989D01*
X270318Y456934D01*
X270232Y456876D01*
X270149Y456814D01*
X270067Y456750D01*
X269989Y456682D01*
X269913Y456612D01*
X269839Y456539D01*
X269769Y456462D01*
X269701Y456384D01*
X269637Y456302D01*
X269575Y456219D01*
X269517Y456133D01*
X269462Y456044D01*
X269411Y455954D01*
X269363Y455862D01*
X269319Y455768D01*
X269278Y455673D01*
X269241Y455576D01*
X269208Y455477D01*
X269179Y455378D01*
X269153Y455277D01*
X269132Y455176D01*
X269114Y455074D01*
X269100Y454971D01*
X269090Y454867D01*
X269084Y454764D01*
X269082Y454660D01*
X269081Y454660D02*
X269081Y449241D01*
X269082Y449241D02*
X269084Y449140D01*
X269090Y449039D01*
X269099Y448938D01*
X269112Y448837D01*
X269129Y448737D01*
X269150Y448638D01*
X269174Y448540D01*
X269202Y448443D01*
X269234Y448346D01*
X269269Y448251D01*
X269308Y448158D01*
X269350Y448066D01*
X269396Y447975D01*
X269445Y447886D01*
X269497Y447800D01*
X269553Y447715D01*
X269611Y447632D01*
X269673Y447552D01*
X269738Y447474D01*
X269805Y447398D01*
X269875Y447325D01*
X269948Y447255D01*
X270024Y447188D01*
X270102Y447123D01*
X270182Y447061D01*
X270265Y447003D01*
X270350Y446947D01*
X270437Y446895D01*
X270525Y446846D01*
X270616Y446800D01*
X270708Y446758D01*
X270801Y446719D01*
X270896Y446684D01*
X270993Y446652D01*
X271090Y446624D01*
X271188Y446600D01*
X271287Y446579D01*
X271387Y446562D01*
X271488Y446549D01*
X271589Y446540D01*
X271690Y446534D01*
X271791Y446532D01*
X276306Y446532D01*
X262238Y446532D02*
X262238Y462788D01*
X262238Y446532D02*
X257722Y446532D01*
X257618Y446534D01*
X257515Y446540D01*
X257411Y446550D01*
X257308Y446564D01*
X257206Y446582D01*
X257105Y446603D01*
X257004Y446629D01*
X256905Y446658D01*
X256806Y446691D01*
X256709Y446728D01*
X256614Y446769D01*
X256520Y446813D01*
X256428Y446861D01*
X256338Y446912D01*
X256249Y446967D01*
X256163Y447025D01*
X256080Y447087D01*
X255998Y447151D01*
X255920Y447219D01*
X255844Y447289D01*
X255770Y447362D01*
X255700Y447439D01*
X255632Y447517D01*
X255568Y447599D01*
X255506Y447682D01*
X255448Y447768D01*
X255393Y447857D01*
X255342Y447947D01*
X255294Y448039D01*
X255250Y448133D01*
X255209Y448228D01*
X255172Y448325D01*
X255139Y448424D01*
X255110Y448523D01*
X255084Y448624D01*
X255063Y448725D01*
X255045Y448827D01*
X255031Y448930D01*
X255021Y449034D01*
X255015Y449137D01*
X255013Y449241D01*
X255013Y454660D01*
X255015Y454761D01*
X255021Y454862D01*
X255030Y454963D01*
X255043Y455064D01*
X255060Y455164D01*
X255081Y455263D01*
X255105Y455361D01*
X255133Y455458D01*
X255165Y455555D01*
X255200Y455650D01*
X255239Y455743D01*
X255281Y455835D01*
X255327Y455926D01*
X255376Y456015D01*
X255428Y456101D01*
X255484Y456186D01*
X255542Y456269D01*
X255604Y456349D01*
X255669Y456427D01*
X255736Y456503D01*
X255806Y456576D01*
X255879Y456646D01*
X255955Y456713D01*
X256033Y456778D01*
X256113Y456840D01*
X256196Y456898D01*
X256281Y456954D01*
X256368Y457006D01*
X256456Y457055D01*
X256547Y457101D01*
X256639Y457143D01*
X256732Y457182D01*
X256827Y457217D01*
X256924Y457249D01*
X257021Y457277D01*
X257119Y457301D01*
X257218Y457322D01*
X257318Y457339D01*
X257419Y457352D01*
X257520Y457361D01*
X257621Y457367D01*
X257722Y457369D01*
X262238Y457369D01*
X239557Y462788D02*
X239557Y446532D01*
X239557Y462788D02*
X235041Y462788D01*
X234908Y462786D01*
X234776Y462780D01*
X234644Y462770D01*
X234512Y462757D01*
X234380Y462739D01*
X234250Y462718D01*
X234119Y462693D01*
X233990Y462664D01*
X233862Y462631D01*
X233734Y462595D01*
X233608Y462555D01*
X233483Y462511D01*
X233359Y462463D01*
X233237Y462412D01*
X233116Y462357D01*
X232997Y462299D01*
X232879Y462237D01*
X232764Y462172D01*
X232650Y462103D01*
X232539Y462032D01*
X232430Y461956D01*
X232323Y461878D01*
X232218Y461797D01*
X232116Y461712D01*
X232016Y461625D01*
X231919Y461535D01*
X231824Y461442D01*
X231733Y461346D01*
X231644Y461248D01*
X231558Y461147D01*
X231475Y461043D01*
X231395Y460937D01*
X231319Y460829D01*
X231245Y460719D01*
X231175Y460606D01*
X231108Y460492D01*
X231045Y460375D01*
X230985Y460257D01*
X230928Y460137D01*
X230875Y460015D01*
X230826Y459892D01*
X230780Y459768D01*
X230738Y459642D01*
X230700Y459515D01*
X230665Y459387D01*
X230634Y459258D01*
X230607Y459129D01*
X230584Y458998D01*
X230564Y458867D01*
X230549Y458735D01*
X230537Y458603D01*
X230529Y458471D01*
X230525Y458338D01*
X230525Y458206D01*
X230529Y458073D01*
X230537Y457941D01*
X230549Y457809D01*
X230564Y457677D01*
X230584Y457546D01*
X230607Y457415D01*
X230634Y457286D01*
X230665Y457157D01*
X230700Y457029D01*
X230738Y456902D01*
X230780Y456776D01*
X230826Y456652D01*
X230875Y456529D01*
X230928Y456407D01*
X230985Y456287D01*
X231045Y456169D01*
X231108Y456052D01*
X231175Y455938D01*
X231245Y455825D01*
X231319Y455715D01*
X231395Y455607D01*
X231475Y455501D01*
X231558Y455397D01*
X231644Y455296D01*
X231733Y455198D01*
X231824Y455102D01*
X231919Y455009D01*
X232016Y454919D01*
X232116Y454832D01*
X232218Y454747D01*
X232323Y454666D01*
X232430Y454588D01*
X232539Y454512D01*
X232650Y454441D01*
X232764Y454372D01*
X232879Y454307D01*
X232997Y454245D01*
X233116Y454187D01*
X233237Y454132D01*
X233359Y454081D01*
X233483Y454033D01*
X233608Y453989D01*
X233734Y453949D01*
X233862Y453913D01*
X233990Y453880D01*
X234119Y453851D01*
X234250Y453826D01*
X234380Y453805D01*
X234512Y453787D01*
X234644Y453774D01*
X234776Y453764D01*
X234908Y453758D01*
X235041Y453756D01*
X235041Y453757D02*
X239557Y453757D01*
X224190Y457369D02*
X224190Y446532D01*
X224190Y457369D02*
X218772Y457369D01*
X218772Y455563D01*
X213854Y453757D02*
X213854Y450144D01*
X213854Y453757D02*
X213852Y453876D01*
X213846Y453996D01*
X213836Y454115D01*
X213822Y454233D01*
X213805Y454352D01*
X213783Y454469D01*
X213758Y454586D01*
X213728Y454701D01*
X213695Y454816D01*
X213658Y454930D01*
X213618Y455042D01*
X213573Y455153D01*
X213525Y455262D01*
X213474Y455370D01*
X213419Y455476D01*
X213360Y455580D01*
X213298Y455682D01*
X213233Y455782D01*
X213164Y455880D01*
X213092Y455976D01*
X213017Y456069D01*
X212940Y456159D01*
X212859Y456247D01*
X212775Y456332D01*
X212688Y456414D01*
X212599Y456494D01*
X212507Y456570D01*
X212413Y456644D01*
X212316Y456714D01*
X212218Y456781D01*
X212117Y456845D01*
X212013Y456905D01*
X211908Y456962D01*
X211801Y457015D01*
X211693Y457065D01*
X211583Y457111D01*
X211471Y457153D01*
X211358Y457192D01*
X211244Y457227D01*
X211129Y457258D01*
X211012Y457286D01*
X210895Y457309D01*
X210778Y457329D01*
X210659Y457345D01*
X210540Y457357D01*
X210421Y457365D01*
X210302Y457369D01*
X210182Y457369D01*
X210063Y457365D01*
X209944Y457357D01*
X209825Y457345D01*
X209706Y457329D01*
X209589Y457309D01*
X209472Y457286D01*
X209355Y457258D01*
X209240Y457227D01*
X209126Y457192D01*
X209013Y457153D01*
X208901Y457111D01*
X208791Y457065D01*
X208683Y457015D01*
X208576Y456962D01*
X208471Y456905D01*
X208367Y456845D01*
X208266Y456781D01*
X208168Y456714D01*
X208071Y456644D01*
X207977Y456570D01*
X207885Y456494D01*
X207796Y456414D01*
X207709Y456332D01*
X207625Y456247D01*
X207544Y456159D01*
X207467Y456069D01*
X207392Y455976D01*
X207320Y455880D01*
X207251Y455782D01*
X207186Y455682D01*
X207124Y455580D01*
X207065Y455476D01*
X207010Y455370D01*
X206959Y455262D01*
X206911Y455153D01*
X206866Y455042D01*
X206826Y454930D01*
X206789Y454816D01*
X206756Y454701D01*
X206726Y454586D01*
X206701Y454469D01*
X206679Y454352D01*
X206662Y454233D01*
X206648Y454115D01*
X206638Y453996D01*
X206632Y453876D01*
X206630Y453757D01*
X206630Y450144D01*
X206632Y450025D01*
X206638Y449905D01*
X206648Y449786D01*
X206662Y449668D01*
X206679Y449549D01*
X206701Y449432D01*
X206726Y449315D01*
X206756Y449200D01*
X206789Y449085D01*
X206826Y448971D01*
X206866Y448859D01*
X206911Y448748D01*
X206959Y448639D01*
X207010Y448531D01*
X207065Y448425D01*
X207124Y448321D01*
X207186Y448219D01*
X207251Y448119D01*
X207320Y448021D01*
X207392Y447925D01*
X207467Y447832D01*
X207544Y447742D01*
X207625Y447654D01*
X207709Y447569D01*
X207796Y447487D01*
X207885Y447407D01*
X207977Y447331D01*
X208071Y447257D01*
X208168Y447187D01*
X208266Y447120D01*
X208367Y447056D01*
X208471Y446996D01*
X208576Y446939D01*
X208683Y446886D01*
X208791Y446836D01*
X208901Y446790D01*
X209013Y446748D01*
X209126Y446709D01*
X209240Y446674D01*
X209355Y446643D01*
X209472Y446615D01*
X209589Y446592D01*
X209706Y446572D01*
X209825Y446556D01*
X209944Y446544D01*
X210063Y446536D01*
X210182Y446532D01*
X210302Y446532D01*
X210421Y446536D01*
X210540Y446544D01*
X210659Y446556D01*
X210778Y446572D01*
X210895Y446592D01*
X211012Y446615D01*
X211129Y446643D01*
X211244Y446674D01*
X211358Y446709D01*
X211471Y446748D01*
X211583Y446790D01*
X211693Y446836D01*
X211801Y446886D01*
X211908Y446939D01*
X212013Y446996D01*
X212117Y447056D01*
X212218Y447120D01*
X212316Y447187D01*
X212413Y447257D01*
X212507Y447331D01*
X212599Y447407D01*
X212688Y447487D01*
X212775Y447569D01*
X212859Y447654D01*
X212940Y447742D01*
X213017Y447832D01*
X213092Y447925D01*
X213164Y448021D01*
X213233Y448119D01*
X213298Y448219D01*
X213360Y448321D01*
X213419Y448425D01*
X213474Y448531D01*
X213525Y448639D01*
X213573Y448748D01*
X213618Y448859D01*
X213658Y448971D01*
X213695Y449085D01*
X213728Y449200D01*
X213758Y449315D01*
X213783Y449432D01*
X213805Y449549D01*
X213822Y449668D01*
X213836Y449786D01*
X213846Y449905D01*
X213852Y450025D01*
X213854Y450144D01*
X197671Y446532D02*
X193156Y446532D01*
X197671Y446532D02*
X197772Y446534D01*
X197873Y446540D01*
X197974Y446549D01*
X198075Y446562D01*
X198175Y446579D01*
X198274Y446600D01*
X198372Y446624D01*
X198469Y446652D01*
X198566Y446684D01*
X198661Y446719D01*
X198754Y446758D01*
X198846Y446800D01*
X198937Y446846D01*
X199026Y446895D01*
X199112Y446947D01*
X199197Y447003D01*
X199280Y447061D01*
X199360Y447123D01*
X199438Y447188D01*
X199514Y447255D01*
X199587Y447325D01*
X199657Y447398D01*
X199724Y447474D01*
X199789Y447552D01*
X199851Y447632D01*
X199909Y447715D01*
X199965Y447800D01*
X200017Y447887D01*
X200066Y447975D01*
X200112Y448066D01*
X200154Y448158D01*
X200193Y448251D01*
X200228Y448346D01*
X200260Y448443D01*
X200288Y448540D01*
X200312Y448638D01*
X200333Y448737D01*
X200350Y448837D01*
X200363Y448938D01*
X200372Y449039D01*
X200378Y449140D01*
X200380Y449241D01*
X200381Y449241D02*
X200381Y454660D01*
X200380Y454660D02*
X200378Y454761D01*
X200372Y454862D01*
X200363Y454963D01*
X200350Y455064D01*
X200333Y455164D01*
X200312Y455263D01*
X200288Y455361D01*
X200260Y455458D01*
X200228Y455555D01*
X200193Y455650D01*
X200154Y455743D01*
X200112Y455835D01*
X200066Y455926D01*
X200017Y456015D01*
X199965Y456101D01*
X199909Y456186D01*
X199851Y456269D01*
X199789Y456349D01*
X199724Y456427D01*
X199657Y456503D01*
X199587Y456576D01*
X199514Y456646D01*
X199438Y456713D01*
X199360Y456778D01*
X199280Y456840D01*
X199197Y456898D01*
X199112Y456954D01*
X199026Y457006D01*
X198937Y457055D01*
X198846Y457101D01*
X198754Y457143D01*
X198661Y457182D01*
X198566Y457217D01*
X198469Y457249D01*
X198372Y457277D01*
X198274Y457301D01*
X198175Y457322D01*
X198075Y457339D01*
X197974Y457352D01*
X197873Y457361D01*
X197772Y457367D01*
X197671Y457369D01*
X193156Y457369D01*
X193156Y443823D01*
X193158Y443722D01*
X193164Y443621D01*
X193173Y443520D01*
X193186Y443419D01*
X193203Y443319D01*
X193224Y443220D01*
X193248Y443122D01*
X193276Y443025D01*
X193308Y442928D01*
X193343Y442833D01*
X193382Y442740D01*
X193424Y442648D01*
X193470Y442557D01*
X193519Y442469D01*
X193571Y442382D01*
X193627Y442297D01*
X193685Y442214D01*
X193747Y442134D01*
X193812Y442056D01*
X193879Y441980D01*
X193949Y441907D01*
X194022Y441837D01*
X194098Y441770D01*
X194176Y441705D01*
X194256Y441643D01*
X194339Y441585D01*
X194424Y441529D01*
X194511Y441477D01*
X194599Y441428D01*
X194690Y441382D01*
X194782Y441340D01*
X194875Y441301D01*
X194970Y441266D01*
X195067Y441234D01*
X195164Y441206D01*
X195262Y441182D01*
X195361Y441161D01*
X195461Y441144D01*
X195562Y441131D01*
X195663Y441122D01*
X195764Y441116D01*
X195865Y441114D01*
X195865Y441113D02*
X199478Y441113D01*
X185633Y446532D02*
X185633Y457369D01*
X180215Y457369D01*
X180215Y455563D01*
X172210Y452854D02*
X168146Y452854D01*
X172210Y452854D02*
X172322Y452852D01*
X172433Y452846D01*
X172544Y452836D01*
X172655Y452823D01*
X172765Y452805D01*
X172874Y452783D01*
X172983Y452758D01*
X173091Y452729D01*
X173197Y452696D01*
X173303Y452659D01*
X173407Y452619D01*
X173509Y452575D01*
X173610Y452527D01*
X173709Y452476D01*
X173807Y452421D01*
X173902Y452363D01*
X173995Y452302D01*
X174086Y452237D01*
X174175Y452169D01*
X174261Y452098D01*
X174344Y452025D01*
X174425Y451948D01*
X174504Y451868D01*
X174579Y451786D01*
X174651Y451701D01*
X174721Y451614D01*
X174787Y451524D01*
X174850Y451432D01*
X174910Y451337D01*
X174966Y451241D01*
X175019Y451143D01*
X175068Y451043D01*
X175114Y450941D01*
X175156Y450838D01*
X175195Y450733D01*
X175230Y450627D01*
X175261Y450520D01*
X175288Y450412D01*
X175312Y450303D01*
X175331Y450193D01*
X175347Y450083D01*
X175359Y449972D01*
X175367Y449860D01*
X175371Y449749D01*
X175371Y449637D01*
X175367Y449526D01*
X175359Y449414D01*
X175347Y449303D01*
X175331Y449193D01*
X175312Y449083D01*
X175288Y448974D01*
X175261Y448866D01*
X175230Y448759D01*
X175195Y448653D01*
X175156Y448548D01*
X175114Y448445D01*
X175068Y448343D01*
X175019Y448243D01*
X174966Y448145D01*
X174910Y448049D01*
X174850Y447954D01*
X174787Y447862D01*
X174721Y447772D01*
X174651Y447685D01*
X174579Y447600D01*
X174504Y447518D01*
X174425Y447438D01*
X174344Y447361D01*
X174261Y447288D01*
X174175Y447217D01*
X174086Y447149D01*
X173995Y447084D01*
X173902Y447023D01*
X173807Y446965D01*
X173709Y446910D01*
X173610Y446859D01*
X173509Y446811D01*
X173407Y446767D01*
X173303Y446727D01*
X173197Y446690D01*
X173091Y446657D01*
X172983Y446628D01*
X172874Y446603D01*
X172765Y446581D01*
X172655Y446563D01*
X172544Y446550D01*
X172433Y446540D01*
X172322Y446534D01*
X172210Y446532D01*
X168146Y446532D01*
X168146Y454660D01*
X168148Y454761D01*
X168154Y454862D01*
X168163Y454963D01*
X168176Y455064D01*
X168193Y455164D01*
X168214Y455263D01*
X168238Y455361D01*
X168266Y455458D01*
X168298Y455555D01*
X168333Y455650D01*
X168372Y455743D01*
X168414Y455835D01*
X168460Y455926D01*
X168509Y456015D01*
X168561Y456101D01*
X168617Y456186D01*
X168675Y456269D01*
X168737Y456349D01*
X168802Y456427D01*
X168869Y456503D01*
X168939Y456576D01*
X169012Y456646D01*
X169088Y456713D01*
X169166Y456778D01*
X169246Y456840D01*
X169329Y456898D01*
X169414Y456954D01*
X169501Y457006D01*
X169589Y457055D01*
X169680Y457101D01*
X169772Y457143D01*
X169865Y457182D01*
X169960Y457217D01*
X170057Y457249D01*
X170154Y457277D01*
X170252Y457301D01*
X170351Y457322D01*
X170451Y457339D01*
X170552Y457352D01*
X170653Y457361D01*
X170754Y457367D01*
X170855Y457369D01*
X174468Y457369D01*
X160430Y457369D02*
X160430Y446532D01*
X160430Y457369D02*
X152302Y457369D01*
X152201Y457367D01*
X152100Y457361D01*
X151999Y457352D01*
X151898Y457339D01*
X151798Y457322D01*
X151699Y457301D01*
X151601Y457277D01*
X151504Y457249D01*
X151407Y457217D01*
X151312Y457182D01*
X151219Y457143D01*
X151127Y457101D01*
X151036Y457055D01*
X150948Y457006D01*
X150861Y456954D01*
X150776Y456898D01*
X150693Y456840D01*
X150613Y456778D01*
X150535Y456713D01*
X150459Y456646D01*
X150386Y456576D01*
X150316Y456503D01*
X150249Y456427D01*
X150184Y456349D01*
X150122Y456269D01*
X150064Y456186D01*
X150008Y456101D01*
X149956Y456015D01*
X149907Y455926D01*
X149861Y455835D01*
X149819Y455743D01*
X149780Y455650D01*
X149745Y455555D01*
X149713Y455458D01*
X149685Y455361D01*
X149661Y455263D01*
X149640Y455164D01*
X149623Y455064D01*
X149610Y454963D01*
X149601Y454862D01*
X149595Y454761D01*
X149593Y454660D01*
X149593Y446532D01*
X155012Y446532D02*
X155012Y457369D01*
X141673Y457369D02*
X141673Y446532D01*
X141673Y457369D02*
X133545Y457369D01*
X133444Y457367D01*
X133343Y457361D01*
X133242Y457352D01*
X133141Y457339D01*
X133041Y457322D01*
X132942Y457301D01*
X132844Y457277D01*
X132747Y457249D01*
X132650Y457217D01*
X132555Y457182D01*
X132462Y457143D01*
X132370Y457101D01*
X132279Y457055D01*
X132191Y457006D01*
X132104Y456954D01*
X132019Y456898D01*
X131936Y456840D01*
X131856Y456778D01*
X131778Y456713D01*
X131702Y456646D01*
X131629Y456576D01*
X131559Y456503D01*
X131492Y456427D01*
X131427Y456349D01*
X131365Y456269D01*
X131307Y456186D01*
X131251Y456101D01*
X131199Y456015D01*
X131150Y455926D01*
X131104Y455835D01*
X131062Y455743D01*
X131023Y455650D01*
X130988Y455555D01*
X130956Y455458D01*
X130928Y455361D01*
X130904Y455263D01*
X130883Y455164D01*
X130866Y455064D01*
X130853Y454963D01*
X130844Y454862D01*
X130838Y454761D01*
X130836Y454660D01*
X130836Y446532D01*
X136254Y446532D02*
X136254Y457369D01*
X123749Y457369D02*
X123749Y446532D01*
X124201Y461885D02*
X124201Y462788D01*
X123298Y462788D01*
X123298Y461885D01*
X124201Y461885D01*
X116941Y457369D02*
X116941Y446532D01*
X116941Y457369D02*
X112425Y457369D01*
X112321Y457367D01*
X112218Y457361D01*
X112114Y457351D01*
X112011Y457337D01*
X111909Y457319D01*
X111808Y457298D01*
X111707Y457272D01*
X111608Y457243D01*
X111509Y457210D01*
X111412Y457173D01*
X111317Y457132D01*
X111223Y457088D01*
X111131Y457040D01*
X111041Y456989D01*
X110952Y456934D01*
X110866Y456876D01*
X110783Y456814D01*
X110701Y456750D01*
X110623Y456682D01*
X110547Y456612D01*
X110473Y456539D01*
X110403Y456462D01*
X110335Y456384D01*
X110271Y456302D01*
X110209Y456219D01*
X110151Y456133D01*
X110096Y456044D01*
X110045Y455954D01*
X109997Y455862D01*
X109953Y455768D01*
X109912Y455673D01*
X109875Y455576D01*
X109842Y455477D01*
X109813Y455378D01*
X109787Y455277D01*
X109766Y455176D01*
X109748Y455074D01*
X109734Y454971D01*
X109724Y454867D01*
X109718Y454764D01*
X109716Y454660D01*
X109716Y446532D01*
X100237Y446532D02*
X95721Y446532D01*
X100237Y446532D02*
X100338Y446534D01*
X100439Y446540D01*
X100540Y446549D01*
X100641Y446562D01*
X100741Y446579D01*
X100840Y446600D01*
X100938Y446624D01*
X101035Y446652D01*
X101132Y446684D01*
X101227Y446719D01*
X101320Y446758D01*
X101412Y446800D01*
X101503Y446846D01*
X101591Y446895D01*
X101678Y446947D01*
X101763Y447003D01*
X101846Y447061D01*
X101926Y447123D01*
X102004Y447188D01*
X102080Y447255D01*
X102153Y447325D01*
X102223Y447398D01*
X102290Y447474D01*
X102355Y447552D01*
X102417Y447632D01*
X102475Y447715D01*
X102531Y447800D01*
X102583Y447887D01*
X102632Y447975D01*
X102678Y448066D01*
X102720Y448158D01*
X102759Y448251D01*
X102794Y448346D01*
X102826Y448443D01*
X102854Y448540D01*
X102878Y448638D01*
X102899Y448737D01*
X102916Y448837D01*
X102929Y448938D01*
X102938Y449039D01*
X102944Y449140D01*
X102946Y449241D01*
X102946Y454660D01*
X102944Y454761D01*
X102938Y454862D01*
X102929Y454963D01*
X102916Y455064D01*
X102899Y455164D01*
X102878Y455263D01*
X102854Y455361D01*
X102826Y455458D01*
X102794Y455555D01*
X102759Y455650D01*
X102720Y455743D01*
X102678Y455835D01*
X102632Y455926D01*
X102583Y456015D01*
X102531Y456101D01*
X102475Y456186D01*
X102417Y456269D01*
X102355Y456349D01*
X102290Y456427D01*
X102223Y456503D01*
X102153Y456576D01*
X102080Y456646D01*
X102004Y456713D01*
X101926Y456778D01*
X101846Y456840D01*
X101763Y456898D01*
X101678Y456954D01*
X101592Y457006D01*
X101503Y457055D01*
X101412Y457101D01*
X101320Y457143D01*
X101227Y457182D01*
X101132Y457217D01*
X101035Y457249D01*
X100938Y457277D01*
X100840Y457301D01*
X100741Y457322D01*
X100641Y457339D01*
X100540Y457352D01*
X100439Y457361D01*
X100338Y457367D01*
X100237Y457369D01*
X95721Y457369D01*
X95721Y443823D01*
X95722Y443823D02*
X95724Y443722D01*
X95730Y443621D01*
X95739Y443520D01*
X95752Y443419D01*
X95769Y443319D01*
X95790Y443220D01*
X95814Y443122D01*
X95842Y443025D01*
X95874Y442928D01*
X95909Y442833D01*
X95948Y442740D01*
X95990Y442648D01*
X96036Y442557D01*
X96085Y442469D01*
X96137Y442382D01*
X96193Y442297D01*
X96251Y442214D01*
X96313Y442134D01*
X96378Y442056D01*
X96445Y441980D01*
X96515Y441907D01*
X96588Y441837D01*
X96664Y441770D01*
X96742Y441705D01*
X96822Y441643D01*
X96905Y441585D01*
X96990Y441529D01*
X97077Y441477D01*
X97165Y441428D01*
X97256Y441382D01*
X97348Y441340D01*
X97441Y441301D01*
X97536Y441266D01*
X97633Y441234D01*
X97730Y441206D01*
X97828Y441182D01*
X97927Y441161D01*
X98027Y441144D01*
X98128Y441131D01*
X98229Y441122D01*
X98330Y441116D01*
X98431Y441114D01*
X98431Y441113D02*
X102043Y441113D01*
X75431Y446532D02*
X75313Y446534D01*
X75195Y446540D01*
X75077Y446549D01*
X74960Y446563D01*
X74843Y446580D01*
X74726Y446601D01*
X74611Y446626D01*
X74496Y446655D01*
X74382Y446688D01*
X74270Y446724D01*
X74159Y446764D01*
X74049Y446807D01*
X73940Y446854D01*
X73833Y446904D01*
X73728Y446959D01*
X73625Y447016D01*
X73524Y447077D01*
X73424Y447141D01*
X73327Y447208D01*
X73232Y447278D01*
X73140Y447352D01*
X73049Y447428D01*
X72962Y447508D01*
X72877Y447590D01*
X72795Y447675D01*
X72715Y447762D01*
X72639Y447853D01*
X72565Y447945D01*
X72495Y448040D01*
X72428Y448137D01*
X72364Y448237D01*
X72303Y448338D01*
X72246Y448441D01*
X72191Y448546D01*
X72141Y448653D01*
X72094Y448762D01*
X72051Y448872D01*
X72011Y448983D01*
X71975Y449095D01*
X71942Y449209D01*
X71913Y449324D01*
X71888Y449439D01*
X71867Y449556D01*
X71850Y449673D01*
X71836Y449790D01*
X71827Y449908D01*
X71821Y450026D01*
X71819Y450144D01*
X75431Y446532D02*
X75614Y446534D01*
X75796Y446541D01*
X75978Y446552D01*
X76160Y446567D01*
X76342Y446587D01*
X76523Y446611D01*
X76703Y446639D01*
X76883Y446671D01*
X77062Y446708D01*
X77239Y446749D01*
X77416Y446795D01*
X77592Y446844D01*
X77767Y446898D01*
X77940Y446956D01*
X78111Y447018D01*
X78282Y447084D01*
X78450Y447155D01*
X78617Y447229D01*
X78782Y447307D01*
X78945Y447389D01*
X79106Y447475D01*
X79265Y447565D01*
X79422Y447659D01*
X79576Y447756D01*
X79728Y447857D01*
X79878Y447962D01*
X80025Y448070D01*
X80169Y448181D01*
X80311Y448296D01*
X80450Y448415D01*
X80586Y448537D01*
X80719Y448662D01*
X80849Y448790D01*
X80398Y459176D02*
X80396Y459294D01*
X80390Y459412D01*
X80381Y459530D01*
X80367Y459647D01*
X80350Y459764D01*
X80329Y459881D01*
X80304Y459996D01*
X80275Y460111D01*
X80242Y460225D01*
X80206Y460337D01*
X80166Y460448D01*
X80123Y460558D01*
X80076Y460667D01*
X80026Y460774D01*
X79971Y460879D01*
X79914Y460982D01*
X79853Y461083D01*
X79789Y461183D01*
X79722Y461280D01*
X79652Y461375D01*
X79578Y461467D01*
X79502Y461558D01*
X79422Y461645D01*
X79340Y461730D01*
X79255Y461812D01*
X79168Y461892D01*
X79077Y461968D01*
X78985Y462042D01*
X78890Y462112D01*
X78793Y462179D01*
X78693Y462243D01*
X78592Y462304D01*
X78489Y462361D01*
X78384Y462416D01*
X78277Y462466D01*
X78168Y462513D01*
X78058Y462556D01*
X77947Y462596D01*
X77835Y462632D01*
X77721Y462665D01*
X77606Y462694D01*
X77491Y462719D01*
X77374Y462740D01*
X77257Y462757D01*
X77140Y462771D01*
X77022Y462780D01*
X76904Y462786D01*
X76786Y462788D01*
X76625Y462786D01*
X76463Y462780D01*
X76302Y462771D01*
X76141Y462757D01*
X75981Y462740D01*
X75821Y462719D01*
X75661Y462694D01*
X75502Y462665D01*
X75344Y462633D01*
X75187Y462597D01*
X75031Y462557D01*
X74875Y462513D01*
X74721Y462465D01*
X74568Y462414D01*
X74416Y462360D01*
X74265Y462301D01*
X74116Y462240D01*
X73969Y462174D01*
X73823Y462105D01*
X73678Y462033D01*
X73536Y461957D01*
X73395Y461878D01*
X73256Y461796D01*
X73120Y461710D01*
X72985Y461621D01*
X72852Y461529D01*
X72722Y461433D01*
X78593Y456015D02*
X78694Y456077D01*
X78794Y456142D01*
X78891Y456211D01*
X78986Y456283D01*
X79079Y456357D01*
X79169Y456435D01*
X79257Y456516D01*
X79342Y456599D01*
X79424Y456685D01*
X79503Y456774D01*
X79580Y456865D01*
X79653Y456959D01*
X79724Y457055D01*
X79791Y457153D01*
X79855Y457253D01*
X79916Y457356D01*
X79973Y457460D01*
X80027Y457566D01*
X80077Y457674D01*
X80124Y457783D01*
X80168Y457894D01*
X80208Y458006D01*
X80244Y458120D01*
X80276Y458234D01*
X80305Y458350D01*
X80330Y458466D01*
X80351Y458583D01*
X80368Y458701D01*
X80382Y458819D01*
X80391Y458938D01*
X80397Y459057D01*
X80399Y459176D01*
X73625Y453305D02*
X73524Y453243D01*
X73424Y453178D01*
X73327Y453109D01*
X73232Y453037D01*
X73139Y452963D01*
X73049Y452885D01*
X72961Y452804D01*
X72876Y452721D01*
X72794Y452635D01*
X72715Y452546D01*
X72638Y452455D01*
X72565Y452361D01*
X72494Y452265D01*
X72427Y452167D01*
X72363Y452067D01*
X72302Y451964D01*
X72245Y451860D01*
X72191Y451754D01*
X72141Y451646D01*
X72094Y451537D01*
X72050Y451426D01*
X72010Y451314D01*
X71974Y451200D01*
X71942Y451086D01*
X71913Y450970D01*
X71888Y450854D01*
X71867Y450737D01*
X71850Y450619D01*
X71836Y450501D01*
X71827Y450382D01*
X71821Y450263D01*
X71819Y450144D01*
X73625Y453305D02*
X78592Y456015D01*
X65358Y462788D02*
X65358Y446532D01*
X65358Y457369D02*
X60842Y457369D01*
X60738Y457367D01*
X60635Y457361D01*
X60531Y457351D01*
X60428Y457337D01*
X60326Y457319D01*
X60225Y457298D01*
X60124Y457272D01*
X60025Y457243D01*
X59926Y457210D01*
X59829Y457173D01*
X59734Y457132D01*
X59640Y457088D01*
X59548Y457040D01*
X59458Y456989D01*
X59369Y456934D01*
X59283Y456876D01*
X59200Y456814D01*
X59118Y456750D01*
X59040Y456682D01*
X58964Y456612D01*
X58890Y456539D01*
X58820Y456462D01*
X58752Y456384D01*
X58688Y456302D01*
X58626Y456219D01*
X58568Y456133D01*
X58513Y456044D01*
X58462Y455954D01*
X58414Y455862D01*
X58370Y455768D01*
X58329Y455673D01*
X58292Y455576D01*
X58259Y455477D01*
X58230Y455378D01*
X58204Y455277D01*
X58183Y455176D01*
X58165Y455074D01*
X58151Y454971D01*
X58141Y454867D01*
X58135Y454764D01*
X58133Y454660D01*
X58133Y446532D01*
X51325Y446532D02*
X51325Y457369D01*
X51776Y461885D02*
X51776Y462788D01*
X50873Y462788D01*
X50873Y461885D01*
X51776Y461885D01*
X42328Y446532D02*
X37812Y446532D01*
X42328Y446532D02*
X42429Y446534D01*
X42530Y446540D01*
X42631Y446549D01*
X42732Y446562D01*
X42832Y446579D01*
X42931Y446600D01*
X43029Y446624D01*
X43126Y446652D01*
X43223Y446684D01*
X43318Y446719D01*
X43411Y446758D01*
X43503Y446800D01*
X43594Y446846D01*
X43682Y446895D01*
X43769Y446947D01*
X43854Y447003D01*
X43937Y447061D01*
X44017Y447123D01*
X44095Y447188D01*
X44171Y447255D01*
X44244Y447325D01*
X44314Y447398D01*
X44381Y447474D01*
X44446Y447552D01*
X44508Y447632D01*
X44566Y447715D01*
X44622Y447800D01*
X44674Y447887D01*
X44723Y447975D01*
X44769Y448066D01*
X44811Y448158D01*
X44850Y448251D01*
X44885Y448346D01*
X44917Y448443D01*
X44945Y448540D01*
X44969Y448638D01*
X44990Y448737D01*
X45007Y448837D01*
X45020Y448938D01*
X45029Y449039D01*
X45035Y449140D01*
X45037Y449241D01*
X45037Y453757D01*
X45035Y453876D01*
X45029Y453996D01*
X45019Y454115D01*
X45005Y454233D01*
X44988Y454352D01*
X44966Y454469D01*
X44941Y454586D01*
X44911Y454701D01*
X44878Y454816D01*
X44841Y454930D01*
X44801Y455042D01*
X44756Y455153D01*
X44708Y455262D01*
X44657Y455370D01*
X44602Y455476D01*
X44543Y455580D01*
X44481Y455682D01*
X44416Y455782D01*
X44347Y455880D01*
X44275Y455976D01*
X44200Y456069D01*
X44123Y456159D01*
X44042Y456247D01*
X43958Y456332D01*
X43871Y456414D01*
X43782Y456494D01*
X43690Y456570D01*
X43596Y456644D01*
X43499Y456714D01*
X43401Y456781D01*
X43300Y456845D01*
X43196Y456905D01*
X43091Y456962D01*
X42984Y457015D01*
X42876Y457065D01*
X42766Y457111D01*
X42654Y457153D01*
X42541Y457192D01*
X42427Y457227D01*
X42312Y457258D01*
X42195Y457286D01*
X42078Y457309D01*
X41961Y457329D01*
X41842Y457345D01*
X41723Y457357D01*
X41604Y457365D01*
X41485Y457369D01*
X41365Y457369D01*
X41246Y457365D01*
X41127Y457357D01*
X41008Y457345D01*
X40889Y457329D01*
X40772Y457309D01*
X40655Y457286D01*
X40538Y457258D01*
X40423Y457227D01*
X40309Y457192D01*
X40196Y457153D01*
X40084Y457111D01*
X39974Y457065D01*
X39866Y457015D01*
X39759Y456962D01*
X39654Y456905D01*
X39550Y456845D01*
X39449Y456781D01*
X39351Y456714D01*
X39254Y456644D01*
X39160Y456570D01*
X39068Y456494D01*
X38979Y456414D01*
X38892Y456332D01*
X38808Y456247D01*
X38727Y456159D01*
X38650Y456069D01*
X38575Y455976D01*
X38503Y455880D01*
X38434Y455782D01*
X38369Y455682D01*
X38307Y455580D01*
X38248Y455476D01*
X38193Y455370D01*
X38142Y455262D01*
X38094Y455153D01*
X38049Y455042D01*
X38009Y454930D01*
X37972Y454816D01*
X37939Y454701D01*
X37909Y454586D01*
X37884Y454469D01*
X37862Y454352D01*
X37845Y454233D01*
X37831Y454115D01*
X37821Y453996D01*
X37815Y453876D01*
X37813Y453757D01*
X37812Y453757D02*
X37812Y451951D01*
X45037Y451951D01*
X31253Y449241D02*
X31253Y462788D01*
X31253Y449241D02*
X31251Y449140D01*
X31245Y449039D01*
X31236Y448938D01*
X31223Y448837D01*
X31206Y448737D01*
X31185Y448638D01*
X31161Y448540D01*
X31133Y448443D01*
X31101Y448346D01*
X31066Y448251D01*
X31027Y448158D01*
X30985Y448066D01*
X30939Y447975D01*
X30890Y447887D01*
X30838Y447800D01*
X30782Y447715D01*
X30724Y447632D01*
X30662Y447552D01*
X30597Y447474D01*
X30530Y447398D01*
X30460Y447325D01*
X30387Y447255D01*
X30311Y447188D01*
X30233Y447123D01*
X30153Y447061D01*
X30070Y447003D01*
X29985Y446947D01*
X29898Y446895D01*
X29810Y446846D01*
X29719Y446800D01*
X29627Y446758D01*
X29534Y446719D01*
X29439Y446684D01*
X29342Y446652D01*
X29245Y446624D01*
X29147Y446600D01*
X29048Y446579D01*
X28948Y446562D01*
X28847Y446549D01*
X28746Y446540D01*
X28645Y446534D01*
X28544Y446532D01*
X16002Y446532D02*
X16002Y462788D01*
X16002Y446532D02*
X20518Y446532D01*
X20619Y446534D01*
X20720Y446540D01*
X20821Y446549D01*
X20922Y446562D01*
X21022Y446579D01*
X21121Y446600D01*
X21219Y446624D01*
X21316Y446652D01*
X21413Y446684D01*
X21508Y446719D01*
X21601Y446758D01*
X21693Y446800D01*
X21784Y446846D01*
X21872Y446895D01*
X21959Y446947D01*
X22044Y447003D01*
X22127Y447061D01*
X22207Y447123D01*
X22285Y447188D01*
X22361Y447255D01*
X22434Y447325D01*
X22504Y447398D01*
X22571Y447474D01*
X22636Y447552D01*
X22698Y447632D01*
X22756Y447715D01*
X22812Y447800D01*
X22864Y447887D01*
X22913Y447975D01*
X22959Y448066D01*
X23001Y448158D01*
X23040Y448251D01*
X23075Y448346D01*
X23107Y448443D01*
X23135Y448540D01*
X23159Y448638D01*
X23180Y448737D01*
X23197Y448837D01*
X23210Y448938D01*
X23219Y449039D01*
X23225Y449140D01*
X23227Y449241D01*
X23227Y454660D01*
X23225Y454761D01*
X23219Y454862D01*
X23210Y454963D01*
X23197Y455064D01*
X23180Y455164D01*
X23159Y455263D01*
X23135Y455361D01*
X23107Y455458D01*
X23075Y455555D01*
X23040Y455650D01*
X23001Y455743D01*
X22959Y455835D01*
X22913Y455926D01*
X22864Y456015D01*
X22812Y456101D01*
X22756Y456186D01*
X22698Y456269D01*
X22636Y456349D01*
X22571Y456427D01*
X22504Y456503D01*
X22434Y456576D01*
X22361Y456646D01*
X22285Y456713D01*
X22207Y456778D01*
X22127Y456840D01*
X22044Y456898D01*
X21959Y456954D01*
X21873Y457006D01*
X21784Y457055D01*
X21693Y457101D01*
X21601Y457143D01*
X21508Y457182D01*
X21413Y457217D01*
X21316Y457249D01*
X21219Y457277D01*
X21121Y457301D01*
X21022Y457322D01*
X20922Y457339D01*
X20821Y457352D01*
X20720Y457361D01*
X20619Y457367D01*
X20518Y457369D01*
X16002Y457369D01*
X264219Y434848D02*
X264219Y418592D01*
X264219Y434848D02*
X259704Y434848D01*
X259573Y434846D01*
X259441Y434840D01*
X259310Y434831D01*
X259180Y434817D01*
X259049Y434800D01*
X258920Y434779D01*
X258791Y434755D01*
X258663Y434726D01*
X258535Y434694D01*
X258409Y434658D01*
X258284Y434619D01*
X258159Y434576D01*
X258037Y434529D01*
X257915Y434479D01*
X257795Y434425D01*
X257677Y434368D01*
X257561Y434307D01*
X257446Y434243D01*
X257333Y434176D01*
X257222Y434105D01*
X257114Y434031D01*
X257007Y433954D01*
X256903Y433874D01*
X256801Y433791D01*
X256702Y433706D01*
X256605Y433617D01*
X256511Y433525D01*
X256419Y433431D01*
X256330Y433334D01*
X256245Y433235D01*
X256162Y433133D01*
X256082Y433029D01*
X256005Y432922D01*
X255931Y432814D01*
X255860Y432703D01*
X255793Y432590D01*
X255729Y432475D01*
X255668Y432359D01*
X255611Y432241D01*
X255557Y432121D01*
X255507Y431999D01*
X255460Y431877D01*
X255417Y431752D01*
X255378Y431627D01*
X255342Y431501D01*
X255310Y431373D01*
X255281Y431245D01*
X255257Y431116D01*
X255236Y430987D01*
X255219Y430856D01*
X255205Y430726D01*
X255196Y430595D01*
X255190Y430463D01*
X255188Y430332D01*
X255188Y423108D01*
X255190Y422977D01*
X255196Y422845D01*
X255205Y422714D01*
X255219Y422584D01*
X255236Y422453D01*
X255257Y422324D01*
X255281Y422195D01*
X255310Y422067D01*
X255342Y421939D01*
X255378Y421813D01*
X255417Y421688D01*
X255460Y421563D01*
X255507Y421441D01*
X255557Y421319D01*
X255611Y421199D01*
X255668Y421081D01*
X255729Y420965D01*
X255793Y420850D01*
X255860Y420737D01*
X255931Y420626D01*
X256005Y420518D01*
X256082Y420411D01*
X256162Y420307D01*
X256245Y420205D01*
X256330Y420106D01*
X256419Y420009D01*
X256511Y419915D01*
X256605Y419823D01*
X256702Y419734D01*
X256801Y419649D01*
X256903Y419566D01*
X257007Y419486D01*
X257114Y419409D01*
X257222Y419335D01*
X257333Y419264D01*
X257446Y419197D01*
X257561Y419133D01*
X257677Y419072D01*
X257795Y419015D01*
X257915Y418961D01*
X258037Y418911D01*
X258159Y418864D01*
X258284Y418821D01*
X258409Y418782D01*
X258535Y418746D01*
X258663Y418714D01*
X258791Y418685D01*
X258920Y418661D01*
X259049Y418640D01*
X259180Y418623D01*
X259310Y418609D01*
X259441Y418600D01*
X259573Y418594D01*
X259704Y418592D01*
X264219Y418592D01*
X245497Y418592D02*
X240981Y418592D01*
X245497Y418592D02*
X245598Y418594D01*
X245699Y418600D01*
X245800Y418609D01*
X245901Y418622D01*
X246001Y418639D01*
X246100Y418660D01*
X246198Y418684D01*
X246295Y418712D01*
X246392Y418744D01*
X246487Y418779D01*
X246580Y418818D01*
X246672Y418860D01*
X246763Y418906D01*
X246852Y418955D01*
X246938Y419007D01*
X247023Y419063D01*
X247106Y419121D01*
X247186Y419183D01*
X247264Y419248D01*
X247340Y419315D01*
X247413Y419385D01*
X247483Y419458D01*
X247550Y419534D01*
X247615Y419612D01*
X247677Y419692D01*
X247735Y419775D01*
X247791Y419860D01*
X247843Y419947D01*
X247892Y420035D01*
X247938Y420126D01*
X247980Y420218D01*
X248019Y420311D01*
X248054Y420406D01*
X248086Y420503D01*
X248114Y420600D01*
X248138Y420698D01*
X248159Y420797D01*
X248176Y420897D01*
X248189Y420998D01*
X248198Y421099D01*
X248204Y421200D01*
X248206Y421301D01*
X248206Y425817D01*
X248204Y425936D01*
X248198Y426056D01*
X248188Y426175D01*
X248174Y426293D01*
X248157Y426412D01*
X248135Y426529D01*
X248110Y426646D01*
X248080Y426761D01*
X248047Y426876D01*
X248010Y426990D01*
X247970Y427102D01*
X247925Y427213D01*
X247877Y427322D01*
X247826Y427430D01*
X247771Y427536D01*
X247712Y427640D01*
X247650Y427742D01*
X247585Y427842D01*
X247516Y427940D01*
X247444Y428036D01*
X247369Y428129D01*
X247292Y428219D01*
X247211Y428307D01*
X247127Y428392D01*
X247040Y428474D01*
X246951Y428554D01*
X246859Y428630D01*
X246765Y428704D01*
X246668Y428774D01*
X246570Y428841D01*
X246469Y428905D01*
X246365Y428965D01*
X246260Y429022D01*
X246153Y429075D01*
X246045Y429125D01*
X245935Y429171D01*
X245823Y429213D01*
X245710Y429252D01*
X245596Y429287D01*
X245481Y429318D01*
X245364Y429346D01*
X245247Y429369D01*
X245130Y429389D01*
X245011Y429405D01*
X244892Y429417D01*
X244773Y429425D01*
X244654Y429429D01*
X244534Y429429D01*
X244415Y429425D01*
X244296Y429417D01*
X244177Y429405D01*
X244058Y429389D01*
X243941Y429369D01*
X243824Y429346D01*
X243707Y429318D01*
X243592Y429287D01*
X243478Y429252D01*
X243365Y429213D01*
X243253Y429171D01*
X243143Y429125D01*
X243035Y429075D01*
X242928Y429022D01*
X242823Y428965D01*
X242719Y428905D01*
X242618Y428841D01*
X242520Y428774D01*
X242423Y428704D01*
X242329Y428630D01*
X242237Y428554D01*
X242148Y428474D01*
X242061Y428392D01*
X241977Y428307D01*
X241896Y428219D01*
X241819Y428129D01*
X241744Y428036D01*
X241672Y427940D01*
X241603Y427842D01*
X241538Y427742D01*
X241476Y427640D01*
X241417Y427536D01*
X241362Y427430D01*
X241311Y427322D01*
X241263Y427213D01*
X241218Y427102D01*
X241178Y426990D01*
X241141Y426876D01*
X241108Y426761D01*
X241078Y426646D01*
X241053Y426529D01*
X241031Y426412D01*
X241014Y426293D01*
X241000Y426175D01*
X240990Y426056D01*
X240984Y425936D01*
X240982Y425817D01*
X240981Y425817D02*
X240981Y424011D01*
X248206Y424011D01*
X233304Y424914D02*
X228789Y423108D01*
X233305Y424914D02*
X233393Y424951D01*
X233479Y424992D01*
X233564Y425036D01*
X233647Y425084D01*
X233727Y425135D01*
X233806Y425189D01*
X233882Y425247D01*
X233956Y425307D01*
X234028Y425371D01*
X234096Y425437D01*
X234162Y425507D01*
X234225Y425578D01*
X234286Y425653D01*
X234343Y425729D01*
X234396Y425808D01*
X234447Y425889D01*
X234494Y425972D01*
X234538Y426057D01*
X234578Y426144D01*
X234615Y426232D01*
X234648Y426322D01*
X234678Y426413D01*
X234703Y426505D01*
X234725Y426598D01*
X234743Y426692D01*
X234758Y426786D01*
X234768Y426881D01*
X234774Y426977D01*
X234777Y427072D01*
X234776Y427168D01*
X234770Y427263D01*
X234761Y427359D01*
X234748Y427453D01*
X234732Y427547D01*
X234711Y427641D01*
X234686Y427733D01*
X234658Y427824D01*
X234626Y427914D01*
X234591Y428003D01*
X234552Y428090D01*
X234509Y428176D01*
X234463Y428260D01*
X234413Y428341D01*
X234361Y428421D01*
X234305Y428499D01*
X234245Y428574D01*
X234183Y428646D01*
X234118Y428716D01*
X234050Y428784D01*
X233980Y428848D01*
X233907Y428910D01*
X233831Y428968D01*
X233753Y429024D01*
X233673Y429076D01*
X233591Y429125D01*
X233507Y429170D01*
X233421Y429212D01*
X233334Y429251D01*
X233245Y429286D01*
X233154Y429317D01*
X233063Y429344D01*
X232970Y429368D01*
X232877Y429388D01*
X232783Y429404D01*
X232688Y429416D01*
X232593Y429425D01*
X232497Y429429D01*
X232402Y429430D01*
X232155Y429423D01*
X231909Y429411D01*
X231663Y429393D01*
X231417Y429368D01*
X231173Y429338D01*
X230929Y429302D01*
X230686Y429261D01*
X230444Y429213D01*
X230203Y429159D01*
X229964Y429100D01*
X229726Y429035D01*
X229490Y428964D01*
X229255Y428888D01*
X229022Y428806D01*
X228792Y428718D01*
X228564Y428625D01*
X228337Y428527D01*
X228788Y423107D02*
X228700Y423070D01*
X228614Y423029D01*
X228529Y422985D01*
X228446Y422937D01*
X228366Y422886D01*
X228287Y422832D01*
X228211Y422774D01*
X228137Y422714D01*
X228065Y422650D01*
X227997Y422584D01*
X227931Y422514D01*
X227868Y422443D01*
X227807Y422368D01*
X227750Y422292D01*
X227697Y422213D01*
X227646Y422132D01*
X227599Y422049D01*
X227555Y421964D01*
X227515Y421877D01*
X227478Y421789D01*
X227445Y421699D01*
X227415Y421608D01*
X227390Y421516D01*
X227368Y421423D01*
X227350Y421329D01*
X227335Y421235D01*
X227325Y421140D01*
X227319Y421044D01*
X227316Y420949D01*
X227317Y420853D01*
X227323Y420758D01*
X227332Y420662D01*
X227345Y420568D01*
X227361Y420474D01*
X227382Y420380D01*
X227407Y420288D01*
X227435Y420197D01*
X227467Y420107D01*
X227502Y420018D01*
X227541Y419931D01*
X227584Y419845D01*
X227630Y419761D01*
X227680Y419680D01*
X227732Y419600D01*
X227788Y419522D01*
X227848Y419447D01*
X227910Y419375D01*
X227975Y419305D01*
X228043Y419237D01*
X228113Y419173D01*
X228186Y419111D01*
X228262Y419053D01*
X228340Y418997D01*
X228420Y418945D01*
X228502Y418896D01*
X228586Y418851D01*
X228672Y418809D01*
X228759Y418770D01*
X228848Y418735D01*
X228939Y418704D01*
X229030Y418677D01*
X229123Y418653D01*
X229216Y418633D01*
X229310Y418617D01*
X229405Y418605D01*
X229500Y418596D01*
X229596Y418592D01*
X229691Y418591D01*
X229692Y418592D02*
X230054Y418601D01*
X230416Y418619D01*
X230777Y418646D01*
X231137Y418681D01*
X231497Y418724D01*
X231856Y418776D01*
X232213Y418837D01*
X232568Y418906D01*
X232922Y418983D01*
X233274Y419069D01*
X233624Y419163D01*
X233972Y419266D01*
X234317Y419376D01*
X234659Y419495D01*
X221147Y418592D02*
X221147Y429429D01*
X221598Y433945D02*
X221598Y434848D01*
X220695Y434848D01*
X220695Y433945D01*
X221598Y433945D01*
X212223Y418592D02*
X207708Y418592D01*
X212223Y418592D02*
X212324Y418594D01*
X212425Y418600D01*
X212526Y418609D01*
X212627Y418622D01*
X212727Y418639D01*
X212826Y418660D01*
X212924Y418684D01*
X213021Y418712D01*
X213118Y418744D01*
X213213Y418779D01*
X213306Y418818D01*
X213398Y418860D01*
X213489Y418906D01*
X213578Y418955D01*
X213664Y419007D01*
X213749Y419063D01*
X213832Y419121D01*
X213912Y419183D01*
X213990Y419248D01*
X214066Y419315D01*
X214139Y419385D01*
X214209Y419458D01*
X214276Y419534D01*
X214341Y419612D01*
X214403Y419692D01*
X214461Y419775D01*
X214517Y419860D01*
X214569Y419947D01*
X214618Y420035D01*
X214664Y420126D01*
X214706Y420218D01*
X214745Y420311D01*
X214780Y420406D01*
X214812Y420503D01*
X214840Y420600D01*
X214864Y420698D01*
X214885Y420797D01*
X214902Y420897D01*
X214915Y420998D01*
X214924Y421099D01*
X214930Y421200D01*
X214932Y421301D01*
X214933Y421301D02*
X214933Y426720D01*
X214932Y426720D02*
X214930Y426821D01*
X214924Y426922D01*
X214915Y427023D01*
X214902Y427124D01*
X214885Y427224D01*
X214864Y427323D01*
X214840Y427421D01*
X214812Y427518D01*
X214780Y427615D01*
X214745Y427710D01*
X214706Y427803D01*
X214664Y427895D01*
X214618Y427986D01*
X214569Y428075D01*
X214517Y428161D01*
X214461Y428246D01*
X214403Y428329D01*
X214341Y428409D01*
X214276Y428487D01*
X214209Y428563D01*
X214139Y428636D01*
X214066Y428706D01*
X213990Y428773D01*
X213912Y428838D01*
X213832Y428900D01*
X213749Y428958D01*
X213664Y429014D01*
X213578Y429066D01*
X213489Y429115D01*
X213398Y429161D01*
X213306Y429203D01*
X213213Y429242D01*
X213118Y429277D01*
X213021Y429309D01*
X212924Y429337D01*
X212826Y429361D01*
X212727Y429382D01*
X212627Y429399D01*
X212526Y429412D01*
X212425Y429421D01*
X212324Y429427D01*
X212223Y429429D01*
X207708Y429429D01*
X207708Y415883D01*
X207710Y415782D01*
X207716Y415681D01*
X207725Y415580D01*
X207738Y415479D01*
X207755Y415379D01*
X207776Y415280D01*
X207800Y415182D01*
X207828Y415085D01*
X207860Y414988D01*
X207895Y414893D01*
X207934Y414800D01*
X207976Y414708D01*
X208022Y414617D01*
X208071Y414529D01*
X208123Y414442D01*
X208179Y414357D01*
X208237Y414274D01*
X208299Y414194D01*
X208364Y414116D01*
X208431Y414040D01*
X208501Y413967D01*
X208574Y413897D01*
X208650Y413830D01*
X208728Y413765D01*
X208808Y413703D01*
X208891Y413645D01*
X208976Y413589D01*
X209063Y413537D01*
X209151Y413488D01*
X209242Y413442D01*
X209334Y413400D01*
X209427Y413361D01*
X209522Y413326D01*
X209619Y413294D01*
X209716Y413266D01*
X209814Y413242D01*
X209913Y413221D01*
X210013Y413204D01*
X210114Y413191D01*
X210215Y413182D01*
X210316Y413176D01*
X210417Y413174D01*
X210417Y413173D02*
X214030Y413173D01*
X200270Y418592D02*
X200270Y429429D01*
X195755Y429429D01*
X195651Y429427D01*
X195548Y429421D01*
X195444Y429411D01*
X195341Y429397D01*
X195239Y429379D01*
X195138Y429358D01*
X195037Y429332D01*
X194938Y429303D01*
X194839Y429270D01*
X194742Y429233D01*
X194647Y429192D01*
X194553Y429148D01*
X194461Y429100D01*
X194371Y429049D01*
X194282Y428994D01*
X194196Y428936D01*
X194113Y428874D01*
X194031Y428810D01*
X193953Y428742D01*
X193877Y428672D01*
X193803Y428599D01*
X193733Y428522D01*
X193665Y428444D01*
X193601Y428362D01*
X193539Y428279D01*
X193481Y428193D01*
X193426Y428104D01*
X193375Y428014D01*
X193327Y427922D01*
X193283Y427828D01*
X193242Y427733D01*
X193205Y427636D01*
X193172Y427537D01*
X193143Y427438D01*
X193117Y427337D01*
X193096Y427236D01*
X193078Y427134D01*
X193064Y427031D01*
X193054Y426927D01*
X193048Y426824D01*
X193046Y426720D01*
X193045Y426720D02*
X193045Y418592D01*
X183493Y418592D02*
X178977Y418592D01*
X183493Y418592D02*
X183594Y418594D01*
X183695Y418600D01*
X183796Y418609D01*
X183897Y418622D01*
X183997Y418639D01*
X184096Y418660D01*
X184194Y418684D01*
X184291Y418712D01*
X184388Y418744D01*
X184483Y418779D01*
X184576Y418818D01*
X184668Y418860D01*
X184759Y418906D01*
X184848Y418955D01*
X184934Y419007D01*
X185019Y419063D01*
X185102Y419121D01*
X185182Y419183D01*
X185260Y419248D01*
X185336Y419315D01*
X185409Y419385D01*
X185479Y419458D01*
X185546Y419534D01*
X185611Y419612D01*
X185673Y419692D01*
X185731Y419775D01*
X185787Y419860D01*
X185839Y419947D01*
X185888Y420035D01*
X185934Y420126D01*
X185976Y420218D01*
X186015Y420311D01*
X186050Y420406D01*
X186082Y420503D01*
X186110Y420600D01*
X186134Y420698D01*
X186155Y420797D01*
X186172Y420897D01*
X186185Y420998D01*
X186194Y421099D01*
X186200Y421200D01*
X186202Y421301D01*
X186202Y425817D01*
X186200Y425936D01*
X186194Y426056D01*
X186184Y426175D01*
X186170Y426293D01*
X186153Y426412D01*
X186131Y426529D01*
X186106Y426646D01*
X186076Y426761D01*
X186043Y426876D01*
X186006Y426990D01*
X185966Y427102D01*
X185921Y427213D01*
X185873Y427322D01*
X185822Y427430D01*
X185767Y427536D01*
X185708Y427640D01*
X185646Y427742D01*
X185581Y427842D01*
X185512Y427940D01*
X185440Y428036D01*
X185365Y428129D01*
X185288Y428219D01*
X185207Y428307D01*
X185123Y428392D01*
X185036Y428474D01*
X184947Y428554D01*
X184855Y428630D01*
X184761Y428704D01*
X184664Y428774D01*
X184566Y428841D01*
X184465Y428905D01*
X184361Y428965D01*
X184256Y429022D01*
X184149Y429075D01*
X184041Y429125D01*
X183931Y429171D01*
X183819Y429213D01*
X183706Y429252D01*
X183592Y429287D01*
X183477Y429318D01*
X183360Y429346D01*
X183243Y429369D01*
X183126Y429389D01*
X183007Y429405D01*
X182888Y429417D01*
X182769Y429425D01*
X182650Y429429D01*
X182530Y429429D01*
X182411Y429425D01*
X182292Y429417D01*
X182173Y429405D01*
X182054Y429389D01*
X181937Y429369D01*
X181820Y429346D01*
X181703Y429318D01*
X181588Y429287D01*
X181474Y429252D01*
X181361Y429213D01*
X181249Y429171D01*
X181139Y429125D01*
X181031Y429075D01*
X180924Y429022D01*
X180819Y428965D01*
X180715Y428905D01*
X180614Y428841D01*
X180516Y428774D01*
X180419Y428704D01*
X180325Y428630D01*
X180233Y428554D01*
X180144Y428474D01*
X180057Y428392D01*
X179973Y428307D01*
X179892Y428219D01*
X179815Y428129D01*
X179740Y428036D01*
X179668Y427940D01*
X179599Y427842D01*
X179534Y427742D01*
X179472Y427640D01*
X179413Y427536D01*
X179358Y427430D01*
X179307Y427322D01*
X179259Y427213D01*
X179214Y427102D01*
X179174Y426990D01*
X179137Y426876D01*
X179104Y426761D01*
X179074Y426646D01*
X179049Y426529D01*
X179027Y426412D01*
X179010Y426293D01*
X178996Y426175D01*
X178986Y426056D01*
X178980Y425936D01*
X178978Y425817D01*
X178977Y425817D02*
X178977Y424011D01*
X186202Y424011D01*
X165504Y418592D02*
X165504Y434848D01*
X165504Y418592D02*
X170019Y418592D01*
X170120Y418594D01*
X170221Y418600D01*
X170322Y418609D01*
X170423Y418622D01*
X170523Y418639D01*
X170622Y418660D01*
X170720Y418684D01*
X170817Y418712D01*
X170914Y418744D01*
X171009Y418779D01*
X171102Y418818D01*
X171194Y418860D01*
X171285Y418906D01*
X171374Y418955D01*
X171460Y419007D01*
X171545Y419063D01*
X171628Y419121D01*
X171708Y419183D01*
X171786Y419248D01*
X171862Y419315D01*
X171935Y419385D01*
X172005Y419458D01*
X172072Y419534D01*
X172137Y419612D01*
X172199Y419692D01*
X172257Y419775D01*
X172313Y419860D01*
X172365Y419947D01*
X172414Y420035D01*
X172460Y420126D01*
X172502Y420218D01*
X172541Y420311D01*
X172576Y420406D01*
X172608Y420503D01*
X172636Y420600D01*
X172660Y420698D01*
X172681Y420797D01*
X172698Y420897D01*
X172711Y420998D01*
X172720Y421099D01*
X172726Y421200D01*
X172728Y421301D01*
X172728Y426720D01*
X172726Y426821D01*
X172720Y426922D01*
X172711Y427023D01*
X172698Y427124D01*
X172681Y427224D01*
X172660Y427323D01*
X172636Y427421D01*
X172608Y427518D01*
X172576Y427615D01*
X172541Y427710D01*
X172502Y427803D01*
X172460Y427895D01*
X172414Y427986D01*
X172365Y428075D01*
X172313Y428161D01*
X172257Y428246D01*
X172199Y428329D01*
X172137Y428409D01*
X172072Y428487D01*
X172005Y428563D01*
X171935Y428636D01*
X171862Y428706D01*
X171786Y428773D01*
X171708Y428838D01*
X171628Y428900D01*
X171545Y428958D01*
X171460Y429014D01*
X171374Y429066D01*
X171285Y429115D01*
X171194Y429161D01*
X171102Y429203D01*
X171009Y429242D01*
X170914Y429277D01*
X170817Y429309D01*
X170720Y429337D01*
X170622Y429361D01*
X170523Y429382D01*
X170423Y429399D01*
X170322Y429412D01*
X170221Y429421D01*
X170120Y429427D01*
X170019Y429429D01*
X165504Y429429D01*
X149656Y434848D02*
X149656Y418592D01*
X145141Y418592D01*
X145037Y418594D01*
X144934Y418600D01*
X144830Y418610D01*
X144727Y418624D01*
X144625Y418642D01*
X144524Y418663D01*
X144423Y418689D01*
X144324Y418718D01*
X144225Y418751D01*
X144128Y418788D01*
X144033Y418829D01*
X143939Y418873D01*
X143847Y418921D01*
X143757Y418972D01*
X143668Y419027D01*
X143582Y419085D01*
X143499Y419147D01*
X143417Y419211D01*
X143339Y419279D01*
X143263Y419349D01*
X143189Y419422D01*
X143119Y419499D01*
X143051Y419577D01*
X142987Y419659D01*
X142925Y419742D01*
X142867Y419828D01*
X142812Y419917D01*
X142761Y420007D01*
X142713Y420099D01*
X142669Y420193D01*
X142628Y420288D01*
X142591Y420385D01*
X142558Y420484D01*
X142529Y420583D01*
X142503Y420684D01*
X142482Y420785D01*
X142464Y420887D01*
X142450Y420990D01*
X142440Y421094D01*
X142434Y421197D01*
X142432Y421301D01*
X142431Y421301D02*
X142431Y426720D01*
X142432Y426720D02*
X142434Y426821D01*
X142440Y426922D01*
X142449Y427023D01*
X142462Y427124D01*
X142479Y427224D01*
X142500Y427323D01*
X142524Y427421D01*
X142552Y427518D01*
X142584Y427615D01*
X142619Y427710D01*
X142658Y427803D01*
X142700Y427895D01*
X142746Y427986D01*
X142795Y428075D01*
X142847Y428161D01*
X142903Y428246D01*
X142961Y428329D01*
X143023Y428409D01*
X143088Y428487D01*
X143155Y428563D01*
X143225Y428636D01*
X143298Y428706D01*
X143374Y428773D01*
X143452Y428838D01*
X143532Y428900D01*
X143615Y428958D01*
X143700Y429014D01*
X143787Y429066D01*
X143875Y429115D01*
X143966Y429161D01*
X144058Y429203D01*
X144151Y429242D01*
X144246Y429277D01*
X144343Y429309D01*
X144440Y429337D01*
X144538Y429361D01*
X144637Y429382D01*
X144737Y429399D01*
X144838Y429412D01*
X144939Y429421D01*
X145040Y429427D01*
X145141Y429429D01*
X149656Y429429D01*
X136703Y413173D02*
X134897Y413173D01*
X129479Y429429D01*
X136703Y429429D02*
X133091Y418592D01*
X114470Y427623D02*
X109954Y427623D01*
X109954Y427624D02*
X109821Y427622D01*
X109689Y427616D01*
X109557Y427606D01*
X109425Y427593D01*
X109293Y427575D01*
X109163Y427554D01*
X109032Y427529D01*
X108903Y427500D01*
X108775Y427467D01*
X108647Y427431D01*
X108521Y427391D01*
X108396Y427347D01*
X108272Y427299D01*
X108150Y427248D01*
X108029Y427193D01*
X107910Y427135D01*
X107792Y427073D01*
X107677Y427008D01*
X107563Y426939D01*
X107452Y426868D01*
X107343Y426792D01*
X107236Y426714D01*
X107131Y426633D01*
X107029Y426548D01*
X106929Y426461D01*
X106832Y426371D01*
X106737Y426278D01*
X106646Y426182D01*
X106557Y426084D01*
X106471Y425983D01*
X106388Y425879D01*
X106308Y425773D01*
X106232Y425665D01*
X106158Y425555D01*
X106088Y425442D01*
X106021Y425328D01*
X105958Y425211D01*
X105898Y425093D01*
X105841Y424973D01*
X105788Y424851D01*
X105739Y424728D01*
X105693Y424604D01*
X105651Y424478D01*
X105613Y424351D01*
X105578Y424223D01*
X105547Y424094D01*
X105520Y423965D01*
X105497Y423834D01*
X105477Y423703D01*
X105462Y423571D01*
X105450Y423439D01*
X105442Y423307D01*
X105438Y423174D01*
X105438Y423042D01*
X105442Y422909D01*
X105450Y422777D01*
X105462Y422645D01*
X105477Y422513D01*
X105497Y422382D01*
X105520Y422251D01*
X105547Y422122D01*
X105578Y421993D01*
X105613Y421865D01*
X105651Y421738D01*
X105693Y421612D01*
X105739Y421488D01*
X105788Y421365D01*
X105841Y421243D01*
X105898Y421123D01*
X105958Y421005D01*
X106021Y420888D01*
X106088Y420774D01*
X106158Y420661D01*
X106232Y420551D01*
X106308Y420443D01*
X106388Y420337D01*
X106471Y420233D01*
X106557Y420132D01*
X106646Y420034D01*
X106737Y419938D01*
X106832Y419845D01*
X106929Y419755D01*
X107029Y419668D01*
X107131Y419583D01*
X107236Y419502D01*
X107343Y419424D01*
X107452Y419348D01*
X107563Y419277D01*
X107677Y419208D01*
X107792Y419143D01*
X107910Y419081D01*
X108029Y419023D01*
X108150Y418968D01*
X108272Y418917D01*
X108396Y418869D01*
X108521Y418825D01*
X108647Y418785D01*
X108775Y418749D01*
X108903Y418716D01*
X109032Y418687D01*
X109163Y418662D01*
X109293Y418641D01*
X109425Y418623D01*
X109557Y418610D01*
X109689Y418600D01*
X109821Y418594D01*
X109954Y418592D01*
X114470Y418592D01*
X114470Y434848D01*
X109954Y434848D01*
X109835Y434846D01*
X109715Y434840D01*
X109596Y434830D01*
X109478Y434816D01*
X109359Y434799D01*
X109242Y434777D01*
X109125Y434752D01*
X109010Y434722D01*
X108895Y434689D01*
X108781Y434652D01*
X108669Y434612D01*
X108558Y434567D01*
X108449Y434519D01*
X108341Y434468D01*
X108235Y434413D01*
X108131Y434354D01*
X108029Y434292D01*
X107929Y434227D01*
X107831Y434158D01*
X107735Y434086D01*
X107642Y434011D01*
X107552Y433934D01*
X107464Y433853D01*
X107379Y433769D01*
X107297Y433682D01*
X107217Y433593D01*
X107141Y433501D01*
X107067Y433407D01*
X106997Y433310D01*
X106930Y433212D01*
X106866Y433111D01*
X106806Y433007D01*
X106749Y432902D01*
X106696Y432795D01*
X106646Y432687D01*
X106600Y432577D01*
X106558Y432465D01*
X106519Y432352D01*
X106484Y432238D01*
X106453Y432123D01*
X106425Y432006D01*
X106402Y431889D01*
X106382Y431772D01*
X106366Y431653D01*
X106354Y431534D01*
X106346Y431415D01*
X106342Y431296D01*
X106342Y431176D01*
X106346Y431057D01*
X106354Y430938D01*
X106366Y430819D01*
X106382Y430700D01*
X106402Y430583D01*
X106425Y430466D01*
X106453Y430349D01*
X106484Y430234D01*
X106519Y430120D01*
X106558Y430007D01*
X106600Y429895D01*
X106646Y429785D01*
X106696Y429677D01*
X106749Y429570D01*
X106806Y429465D01*
X106866Y429361D01*
X106930Y429260D01*
X106997Y429162D01*
X107067Y429065D01*
X107141Y428971D01*
X107217Y428879D01*
X107297Y428790D01*
X107379Y428703D01*
X107464Y428619D01*
X107552Y428538D01*
X107642Y428461D01*
X107735Y428386D01*
X107831Y428314D01*
X107929Y428245D01*
X108029Y428180D01*
X108131Y428118D01*
X108235Y428059D01*
X108341Y428004D01*
X108449Y427953D01*
X108558Y427905D01*
X108669Y427860D01*
X108781Y427820D01*
X108895Y427783D01*
X109010Y427750D01*
X109125Y427720D01*
X109242Y427695D01*
X109359Y427673D01*
X109478Y427656D01*
X109596Y427642D01*
X109715Y427632D01*
X109835Y427626D01*
X109954Y427624D01*
X97000Y418592D02*
X92485Y418592D01*
X97000Y418592D02*
X97101Y418594D01*
X97202Y418600D01*
X97303Y418609D01*
X97404Y418622D01*
X97504Y418639D01*
X97603Y418660D01*
X97701Y418684D01*
X97798Y418712D01*
X97895Y418744D01*
X97990Y418779D01*
X98083Y418818D01*
X98175Y418860D01*
X98266Y418906D01*
X98354Y418955D01*
X98441Y419007D01*
X98526Y419063D01*
X98609Y419121D01*
X98689Y419183D01*
X98767Y419248D01*
X98843Y419315D01*
X98916Y419385D01*
X98986Y419458D01*
X99053Y419534D01*
X99118Y419612D01*
X99180Y419692D01*
X99238Y419775D01*
X99294Y419860D01*
X99346Y419947D01*
X99395Y420035D01*
X99441Y420126D01*
X99483Y420218D01*
X99522Y420311D01*
X99557Y420406D01*
X99589Y420503D01*
X99617Y420600D01*
X99641Y420698D01*
X99662Y420797D01*
X99679Y420897D01*
X99692Y420998D01*
X99701Y421099D01*
X99707Y421200D01*
X99709Y421301D01*
X99710Y421301D02*
X99710Y425817D01*
X99709Y425817D02*
X99707Y425936D01*
X99701Y426056D01*
X99691Y426175D01*
X99677Y426293D01*
X99660Y426412D01*
X99638Y426529D01*
X99613Y426646D01*
X99583Y426761D01*
X99550Y426876D01*
X99513Y426990D01*
X99473Y427102D01*
X99428Y427213D01*
X99380Y427322D01*
X99329Y427430D01*
X99274Y427536D01*
X99215Y427640D01*
X99153Y427742D01*
X99088Y427842D01*
X99019Y427940D01*
X98947Y428036D01*
X98872Y428129D01*
X98795Y428219D01*
X98714Y428307D01*
X98630Y428392D01*
X98543Y428474D01*
X98454Y428554D01*
X98362Y428630D01*
X98268Y428704D01*
X98171Y428774D01*
X98073Y428841D01*
X97972Y428905D01*
X97868Y428965D01*
X97763Y429022D01*
X97656Y429075D01*
X97548Y429125D01*
X97438Y429171D01*
X97326Y429213D01*
X97213Y429252D01*
X97099Y429287D01*
X96984Y429318D01*
X96867Y429346D01*
X96750Y429369D01*
X96633Y429389D01*
X96514Y429405D01*
X96395Y429417D01*
X96276Y429425D01*
X96157Y429429D01*
X96037Y429429D01*
X95918Y429425D01*
X95799Y429417D01*
X95680Y429405D01*
X95561Y429389D01*
X95444Y429369D01*
X95327Y429346D01*
X95210Y429318D01*
X95095Y429287D01*
X94981Y429252D01*
X94868Y429213D01*
X94756Y429171D01*
X94646Y429125D01*
X94538Y429075D01*
X94431Y429022D01*
X94326Y428965D01*
X94222Y428905D01*
X94121Y428841D01*
X94023Y428774D01*
X93926Y428704D01*
X93832Y428630D01*
X93740Y428554D01*
X93651Y428474D01*
X93564Y428392D01*
X93480Y428307D01*
X93399Y428219D01*
X93322Y428129D01*
X93247Y428036D01*
X93175Y427940D01*
X93106Y427842D01*
X93041Y427742D01*
X92979Y427640D01*
X92920Y427536D01*
X92865Y427430D01*
X92814Y427322D01*
X92766Y427213D01*
X92721Y427102D01*
X92681Y426990D01*
X92644Y426876D01*
X92611Y426761D01*
X92581Y426646D01*
X92556Y426529D01*
X92534Y426412D01*
X92517Y426293D01*
X92503Y426175D01*
X92493Y426056D01*
X92487Y425936D01*
X92485Y425817D01*
X92485Y424011D01*
X99710Y424011D01*
X85641Y418592D02*
X85641Y429429D01*
X81126Y429429D01*
X81022Y429427D01*
X80919Y429421D01*
X80815Y429411D01*
X80712Y429397D01*
X80610Y429379D01*
X80509Y429358D01*
X80408Y429332D01*
X80309Y429303D01*
X80210Y429270D01*
X80113Y429233D01*
X80018Y429192D01*
X79924Y429148D01*
X79832Y429100D01*
X79742Y429049D01*
X79653Y428994D01*
X79567Y428936D01*
X79484Y428874D01*
X79402Y428810D01*
X79324Y428742D01*
X79248Y428672D01*
X79174Y428599D01*
X79104Y428522D01*
X79036Y428444D01*
X78972Y428362D01*
X78910Y428279D01*
X78852Y428193D01*
X78797Y428104D01*
X78746Y428014D01*
X78698Y427922D01*
X78654Y427828D01*
X78613Y427733D01*
X78576Y427636D01*
X78543Y427537D01*
X78514Y427438D01*
X78488Y427337D01*
X78467Y427236D01*
X78449Y427134D01*
X78435Y427031D01*
X78425Y426927D01*
X78419Y426824D01*
X78417Y426720D01*
X78417Y418592D01*
X58582Y418592D02*
X64001Y434848D01*
X53164Y434848D02*
X58582Y418592D01*
X47640Y418592D02*
X47640Y429429D01*
X48092Y433945D02*
X48092Y434848D01*
X47189Y434848D01*
X47189Y433945D01*
X48092Y433945D01*
X38265Y424914D02*
X34201Y424914D01*
X38265Y424914D02*
X38377Y424912D01*
X38488Y424906D01*
X38599Y424896D01*
X38710Y424883D01*
X38820Y424865D01*
X38929Y424843D01*
X39038Y424818D01*
X39146Y424789D01*
X39252Y424756D01*
X39358Y424719D01*
X39462Y424679D01*
X39564Y424635D01*
X39665Y424587D01*
X39764Y424536D01*
X39862Y424481D01*
X39957Y424423D01*
X40050Y424362D01*
X40141Y424297D01*
X40230Y424229D01*
X40316Y424158D01*
X40399Y424085D01*
X40480Y424008D01*
X40559Y423928D01*
X40634Y423846D01*
X40706Y423761D01*
X40776Y423674D01*
X40842Y423584D01*
X40905Y423492D01*
X40965Y423397D01*
X41021Y423301D01*
X41074Y423203D01*
X41123Y423103D01*
X41169Y423001D01*
X41211Y422898D01*
X41250Y422793D01*
X41285Y422687D01*
X41316Y422580D01*
X41343Y422472D01*
X41367Y422363D01*
X41386Y422253D01*
X41402Y422143D01*
X41414Y422032D01*
X41422Y421920D01*
X41426Y421809D01*
X41426Y421697D01*
X41422Y421586D01*
X41414Y421474D01*
X41402Y421363D01*
X41386Y421253D01*
X41367Y421143D01*
X41343Y421034D01*
X41316Y420926D01*
X41285Y420819D01*
X41250Y420713D01*
X41211Y420608D01*
X41169Y420505D01*
X41123Y420403D01*
X41074Y420303D01*
X41021Y420205D01*
X40965Y420109D01*
X40905Y420014D01*
X40842Y419922D01*
X40776Y419832D01*
X40706Y419745D01*
X40634Y419660D01*
X40559Y419578D01*
X40480Y419498D01*
X40399Y419421D01*
X40316Y419348D01*
X40230Y419277D01*
X40141Y419209D01*
X40050Y419144D01*
X39957Y419083D01*
X39862Y419025D01*
X39764Y418970D01*
X39665Y418919D01*
X39564Y418871D01*
X39462Y418827D01*
X39358Y418787D01*
X39252Y418750D01*
X39146Y418717D01*
X39038Y418688D01*
X38929Y418663D01*
X38820Y418641D01*
X38710Y418623D01*
X38599Y418610D01*
X38488Y418600D01*
X38377Y418594D01*
X38265Y418592D01*
X34201Y418592D01*
X34201Y426720D01*
X34202Y426720D02*
X34204Y426821D01*
X34210Y426922D01*
X34219Y427023D01*
X34232Y427124D01*
X34249Y427224D01*
X34270Y427323D01*
X34294Y427421D01*
X34322Y427518D01*
X34354Y427615D01*
X34389Y427710D01*
X34428Y427803D01*
X34470Y427895D01*
X34516Y427986D01*
X34565Y428075D01*
X34617Y428161D01*
X34673Y428246D01*
X34731Y428329D01*
X34793Y428409D01*
X34858Y428487D01*
X34925Y428563D01*
X34995Y428636D01*
X35068Y428706D01*
X35144Y428773D01*
X35222Y428838D01*
X35302Y428900D01*
X35385Y428958D01*
X35470Y429014D01*
X35557Y429066D01*
X35645Y429115D01*
X35736Y429161D01*
X35828Y429203D01*
X35921Y429242D01*
X36016Y429277D01*
X36113Y429309D01*
X36210Y429337D01*
X36308Y429361D01*
X36407Y429382D01*
X36507Y429399D01*
X36608Y429412D01*
X36709Y429421D01*
X36810Y429427D01*
X36911Y429429D01*
X40523Y429429D01*
X27048Y434848D02*
X27048Y421301D01*
X27046Y421200D01*
X27040Y421099D01*
X27031Y420998D01*
X27018Y420897D01*
X27001Y420797D01*
X26980Y420698D01*
X26956Y420600D01*
X26928Y420503D01*
X26896Y420406D01*
X26861Y420311D01*
X26822Y420218D01*
X26780Y420126D01*
X26734Y420035D01*
X26685Y419947D01*
X26633Y419860D01*
X26577Y419775D01*
X26519Y419692D01*
X26457Y419612D01*
X26392Y419534D01*
X26325Y419458D01*
X26255Y419385D01*
X26182Y419315D01*
X26106Y419248D01*
X26028Y419183D01*
X25948Y419121D01*
X25865Y419063D01*
X25780Y419007D01*
X25693Y418955D01*
X25605Y418906D01*
X25514Y418860D01*
X25422Y418818D01*
X25329Y418779D01*
X25234Y418744D01*
X25137Y418712D01*
X25040Y418684D01*
X24942Y418660D01*
X24843Y418639D01*
X24743Y418622D01*
X24642Y418609D01*
X24541Y418600D01*
X24440Y418594D01*
X24339Y418592D01*
X18711Y421301D02*
X18711Y434848D01*
X18711Y421301D02*
X18709Y421200D01*
X18703Y421099D01*
X18694Y420998D01*
X18681Y420897D01*
X18664Y420797D01*
X18643Y420698D01*
X18619Y420600D01*
X18591Y420503D01*
X18559Y420406D01*
X18524Y420311D01*
X18485Y420218D01*
X18443Y420126D01*
X18397Y420035D01*
X18348Y419947D01*
X18296Y419860D01*
X18240Y419775D01*
X18182Y419692D01*
X18120Y419612D01*
X18055Y419534D01*
X17988Y419458D01*
X17918Y419385D01*
X17845Y419315D01*
X17769Y419248D01*
X17691Y419183D01*
X17611Y419121D01*
X17528Y419063D01*
X17443Y419007D01*
X17356Y418955D01*
X17268Y418906D01*
X17177Y418860D01*
X17085Y418818D01*
X16992Y418779D01*
X16897Y418744D01*
X16800Y418712D01*
X16703Y418684D01*
X16605Y418660D01*
X16506Y418639D01*
X16406Y418622D01*
X16305Y418609D01*
X16204Y418600D01*
X16103Y418594D01*
X16002Y418592D01*
X229455Y390652D02*
X234873Y406908D01*
X224036Y406908D02*
X229455Y390652D01*
X215769Y390652D02*
X211253Y390652D01*
X215769Y390652D02*
X215870Y390654D01*
X215971Y390660D01*
X216072Y390669D01*
X216173Y390682D01*
X216273Y390699D01*
X216372Y390720D01*
X216470Y390744D01*
X216567Y390772D01*
X216664Y390804D01*
X216759Y390839D01*
X216852Y390878D01*
X216944Y390920D01*
X217035Y390966D01*
X217124Y391015D01*
X217210Y391067D01*
X217295Y391123D01*
X217378Y391181D01*
X217458Y391243D01*
X217536Y391308D01*
X217612Y391375D01*
X217685Y391445D01*
X217755Y391518D01*
X217822Y391594D01*
X217887Y391672D01*
X217949Y391752D01*
X218007Y391835D01*
X218063Y391920D01*
X218115Y392007D01*
X218164Y392095D01*
X218210Y392186D01*
X218252Y392278D01*
X218291Y392371D01*
X218326Y392466D01*
X218358Y392563D01*
X218386Y392660D01*
X218410Y392758D01*
X218431Y392857D01*
X218448Y392957D01*
X218461Y393058D01*
X218470Y393159D01*
X218476Y393260D01*
X218478Y393361D01*
X218478Y397877D01*
X218476Y397996D01*
X218470Y398116D01*
X218460Y398235D01*
X218446Y398353D01*
X218429Y398472D01*
X218407Y398589D01*
X218382Y398706D01*
X218352Y398821D01*
X218319Y398936D01*
X218282Y399050D01*
X218242Y399162D01*
X218197Y399273D01*
X218149Y399382D01*
X218098Y399490D01*
X218043Y399596D01*
X217984Y399700D01*
X217922Y399802D01*
X217857Y399902D01*
X217788Y400000D01*
X217716Y400096D01*
X217641Y400189D01*
X217564Y400279D01*
X217483Y400367D01*
X217399Y400452D01*
X217312Y400534D01*
X217223Y400614D01*
X217131Y400690D01*
X217037Y400764D01*
X216940Y400834D01*
X216842Y400901D01*
X216741Y400965D01*
X216637Y401025D01*
X216532Y401082D01*
X216425Y401135D01*
X216317Y401185D01*
X216207Y401231D01*
X216095Y401273D01*
X215982Y401312D01*
X215868Y401347D01*
X215753Y401378D01*
X215636Y401406D01*
X215519Y401429D01*
X215402Y401449D01*
X215283Y401465D01*
X215164Y401477D01*
X215045Y401485D01*
X214926Y401489D01*
X214806Y401489D01*
X214687Y401485D01*
X214568Y401477D01*
X214449Y401465D01*
X214330Y401449D01*
X214213Y401429D01*
X214096Y401406D01*
X213979Y401378D01*
X213864Y401347D01*
X213750Y401312D01*
X213637Y401273D01*
X213525Y401231D01*
X213415Y401185D01*
X213307Y401135D01*
X213200Y401082D01*
X213095Y401025D01*
X212991Y400965D01*
X212890Y400901D01*
X212792Y400834D01*
X212695Y400764D01*
X212601Y400690D01*
X212509Y400614D01*
X212420Y400534D01*
X212333Y400452D01*
X212249Y400367D01*
X212168Y400279D01*
X212091Y400189D01*
X212016Y400096D01*
X211944Y400000D01*
X211875Y399902D01*
X211810Y399802D01*
X211748Y399700D01*
X211689Y399596D01*
X211634Y399490D01*
X211583Y399382D01*
X211535Y399273D01*
X211490Y399162D01*
X211450Y399050D01*
X211413Y398936D01*
X211380Y398821D01*
X211350Y398706D01*
X211325Y398589D01*
X211303Y398472D01*
X211286Y398353D01*
X211272Y398235D01*
X211262Y398116D01*
X211256Y397996D01*
X211254Y397877D01*
X211253Y397877D02*
X211253Y396071D01*
X218478Y396071D01*
X204325Y390652D02*
X204325Y401489D01*
X198906Y401489D01*
X198906Y399683D01*
X193850Y390652D02*
X189335Y390652D01*
X189202Y390654D01*
X189070Y390660D01*
X188938Y390670D01*
X188806Y390683D01*
X188674Y390701D01*
X188544Y390722D01*
X188413Y390747D01*
X188284Y390776D01*
X188156Y390809D01*
X188028Y390845D01*
X187902Y390885D01*
X187777Y390929D01*
X187653Y390977D01*
X187531Y391028D01*
X187410Y391083D01*
X187291Y391141D01*
X187173Y391203D01*
X187058Y391268D01*
X186944Y391337D01*
X186833Y391408D01*
X186724Y391484D01*
X186617Y391562D01*
X186512Y391643D01*
X186410Y391728D01*
X186310Y391815D01*
X186213Y391905D01*
X186118Y391998D01*
X186027Y392094D01*
X185938Y392192D01*
X185852Y392293D01*
X185769Y392397D01*
X185689Y392503D01*
X185613Y392611D01*
X185539Y392721D01*
X185469Y392834D01*
X185402Y392948D01*
X185339Y393065D01*
X185279Y393183D01*
X185222Y393303D01*
X185169Y393425D01*
X185120Y393548D01*
X185074Y393672D01*
X185032Y393798D01*
X184994Y393925D01*
X184959Y394053D01*
X184928Y394182D01*
X184901Y394311D01*
X184878Y394442D01*
X184858Y394573D01*
X184843Y394705D01*
X184831Y394837D01*
X184823Y394969D01*
X184819Y395102D01*
X184819Y395234D01*
X184823Y395367D01*
X184831Y395499D01*
X184843Y395631D01*
X184858Y395763D01*
X184878Y395894D01*
X184901Y396025D01*
X184928Y396154D01*
X184959Y396283D01*
X184994Y396411D01*
X185032Y396538D01*
X185074Y396664D01*
X185120Y396788D01*
X185169Y396911D01*
X185222Y397033D01*
X185279Y397153D01*
X185339Y397271D01*
X185402Y397388D01*
X185469Y397502D01*
X185539Y397615D01*
X185613Y397725D01*
X185689Y397833D01*
X185769Y397939D01*
X185852Y398043D01*
X185938Y398144D01*
X186027Y398242D01*
X186118Y398338D01*
X186213Y398431D01*
X186310Y398521D01*
X186410Y398608D01*
X186512Y398693D01*
X186617Y398774D01*
X186724Y398852D01*
X186833Y398928D01*
X186944Y398999D01*
X187058Y399068D01*
X187173Y399133D01*
X187291Y399195D01*
X187410Y399253D01*
X187531Y399308D01*
X187653Y399359D01*
X187777Y399407D01*
X187902Y399451D01*
X188028Y399491D01*
X188156Y399527D01*
X188284Y399560D01*
X188413Y399589D01*
X188544Y399614D01*
X188674Y399635D01*
X188806Y399653D01*
X188938Y399666D01*
X189070Y399676D01*
X189202Y399682D01*
X189335Y399684D01*
X188431Y406908D02*
X193850Y406908D01*
X188431Y406908D02*
X188312Y406906D01*
X188192Y406900D01*
X188073Y406890D01*
X187955Y406876D01*
X187836Y406859D01*
X187719Y406837D01*
X187602Y406812D01*
X187487Y406782D01*
X187372Y406749D01*
X187258Y406712D01*
X187146Y406672D01*
X187035Y406627D01*
X186926Y406579D01*
X186818Y406528D01*
X186712Y406473D01*
X186608Y406414D01*
X186506Y406352D01*
X186406Y406287D01*
X186308Y406218D01*
X186212Y406146D01*
X186119Y406071D01*
X186029Y405994D01*
X185941Y405913D01*
X185856Y405829D01*
X185774Y405742D01*
X185694Y405653D01*
X185618Y405561D01*
X185544Y405467D01*
X185474Y405370D01*
X185407Y405272D01*
X185343Y405171D01*
X185283Y405067D01*
X185226Y404962D01*
X185173Y404855D01*
X185123Y404747D01*
X185077Y404637D01*
X185035Y404525D01*
X184996Y404412D01*
X184961Y404298D01*
X184930Y404183D01*
X184902Y404066D01*
X184879Y403949D01*
X184859Y403832D01*
X184843Y403713D01*
X184831Y403594D01*
X184823Y403475D01*
X184819Y403356D01*
X184819Y403236D01*
X184823Y403117D01*
X184831Y402998D01*
X184843Y402879D01*
X184859Y402760D01*
X184879Y402643D01*
X184902Y402526D01*
X184930Y402409D01*
X184961Y402294D01*
X184996Y402180D01*
X185035Y402067D01*
X185077Y401955D01*
X185123Y401845D01*
X185173Y401737D01*
X185226Y401630D01*
X185283Y401525D01*
X185343Y401421D01*
X185407Y401320D01*
X185474Y401222D01*
X185544Y401125D01*
X185618Y401031D01*
X185694Y400939D01*
X185774Y400850D01*
X185856Y400763D01*
X185941Y400679D01*
X186029Y400598D01*
X186119Y400521D01*
X186212Y400446D01*
X186308Y400374D01*
X186406Y400305D01*
X186506Y400240D01*
X186608Y400178D01*
X186712Y400119D01*
X186818Y400064D01*
X186926Y400013D01*
X187035Y399965D01*
X187146Y399920D01*
X187258Y399880D01*
X187372Y399843D01*
X187487Y399810D01*
X187602Y399780D01*
X187719Y399755D01*
X187836Y399733D01*
X187955Y399716D01*
X188073Y399702D01*
X188192Y399692D01*
X188312Y399686D01*
X188431Y399684D01*
X188431Y399683D02*
X192044Y399683D01*
X169743Y396974D02*
X158906Y396974D01*
X143830Y390652D02*
X139315Y390652D01*
X139182Y390654D01*
X139050Y390660D01*
X138918Y390670D01*
X138786Y390683D01*
X138654Y390701D01*
X138524Y390722D01*
X138393Y390747D01*
X138264Y390776D01*
X138136Y390809D01*
X138008Y390845D01*
X137882Y390885D01*
X137757Y390929D01*
X137633Y390977D01*
X137511Y391028D01*
X137390Y391083D01*
X137271Y391141D01*
X137153Y391203D01*
X137038Y391268D01*
X136924Y391337D01*
X136813Y391408D01*
X136704Y391484D01*
X136597Y391562D01*
X136492Y391643D01*
X136390Y391728D01*
X136290Y391815D01*
X136193Y391905D01*
X136098Y391998D01*
X136007Y392094D01*
X135918Y392192D01*
X135832Y392293D01*
X135749Y392397D01*
X135669Y392503D01*
X135593Y392611D01*
X135519Y392721D01*
X135449Y392834D01*
X135382Y392948D01*
X135319Y393065D01*
X135259Y393183D01*
X135202Y393303D01*
X135149Y393425D01*
X135100Y393548D01*
X135054Y393672D01*
X135012Y393798D01*
X134974Y393925D01*
X134939Y394053D01*
X134908Y394182D01*
X134881Y394311D01*
X134858Y394442D01*
X134838Y394573D01*
X134823Y394705D01*
X134811Y394837D01*
X134803Y394969D01*
X134799Y395102D01*
X134799Y395234D01*
X134803Y395367D01*
X134811Y395499D01*
X134823Y395631D01*
X134838Y395763D01*
X134858Y395894D01*
X134881Y396025D01*
X134908Y396154D01*
X134939Y396283D01*
X134974Y396411D01*
X135012Y396538D01*
X135054Y396664D01*
X135100Y396788D01*
X135149Y396911D01*
X135202Y397033D01*
X135259Y397153D01*
X135319Y397271D01*
X135382Y397388D01*
X135449Y397502D01*
X135519Y397615D01*
X135593Y397725D01*
X135669Y397833D01*
X135749Y397939D01*
X135832Y398043D01*
X135918Y398144D01*
X136007Y398242D01*
X136098Y398338D01*
X136193Y398431D01*
X136290Y398521D01*
X136390Y398608D01*
X136492Y398693D01*
X136597Y398774D01*
X136704Y398852D01*
X136813Y398928D01*
X136924Y398999D01*
X137038Y399068D01*
X137153Y399133D01*
X137271Y399195D01*
X137390Y399253D01*
X137511Y399308D01*
X137633Y399359D01*
X137757Y399407D01*
X137882Y399451D01*
X138008Y399491D01*
X138136Y399527D01*
X138264Y399560D01*
X138393Y399589D01*
X138524Y399614D01*
X138654Y399635D01*
X138786Y399653D01*
X138918Y399666D01*
X139050Y399676D01*
X139182Y399682D01*
X139315Y399684D01*
X138412Y406908D02*
X143830Y406908D01*
X138412Y406908D02*
X138293Y406906D01*
X138173Y406900D01*
X138054Y406890D01*
X137936Y406876D01*
X137817Y406859D01*
X137700Y406837D01*
X137583Y406812D01*
X137468Y406782D01*
X137353Y406749D01*
X137239Y406712D01*
X137127Y406672D01*
X137016Y406627D01*
X136907Y406579D01*
X136799Y406528D01*
X136693Y406473D01*
X136589Y406414D01*
X136487Y406352D01*
X136387Y406287D01*
X136289Y406218D01*
X136193Y406146D01*
X136100Y406071D01*
X136010Y405994D01*
X135922Y405913D01*
X135837Y405829D01*
X135755Y405742D01*
X135675Y405653D01*
X135599Y405561D01*
X135525Y405467D01*
X135455Y405370D01*
X135388Y405272D01*
X135324Y405171D01*
X135264Y405067D01*
X135207Y404962D01*
X135154Y404855D01*
X135104Y404747D01*
X135058Y404637D01*
X135016Y404525D01*
X134977Y404412D01*
X134942Y404298D01*
X134911Y404183D01*
X134883Y404066D01*
X134860Y403949D01*
X134840Y403832D01*
X134824Y403713D01*
X134812Y403594D01*
X134804Y403475D01*
X134800Y403356D01*
X134800Y403236D01*
X134804Y403117D01*
X134812Y402998D01*
X134824Y402879D01*
X134840Y402760D01*
X134860Y402643D01*
X134883Y402526D01*
X134911Y402409D01*
X134942Y402294D01*
X134977Y402180D01*
X135016Y402067D01*
X135058Y401955D01*
X135104Y401845D01*
X135154Y401737D01*
X135207Y401630D01*
X135264Y401525D01*
X135324Y401421D01*
X135388Y401320D01*
X135455Y401222D01*
X135525Y401125D01*
X135599Y401031D01*
X135675Y400939D01*
X135755Y400850D01*
X135837Y400763D01*
X135922Y400679D01*
X136010Y400598D01*
X136100Y400521D01*
X136193Y400446D01*
X136289Y400374D01*
X136387Y400305D01*
X136487Y400240D01*
X136589Y400178D01*
X136693Y400119D01*
X136799Y400064D01*
X136907Y400013D01*
X137016Y399965D01*
X137127Y399920D01*
X137239Y399880D01*
X137353Y399843D01*
X137468Y399810D01*
X137583Y399780D01*
X137700Y399755D01*
X137817Y399733D01*
X137936Y399716D01*
X138054Y399702D01*
X138173Y399692D01*
X138293Y399686D01*
X138412Y399684D01*
X138412Y399683D02*
X142024Y399683D01*
X128859Y388846D02*
X121634Y408714D01*
X115694Y403296D02*
X111179Y406908D01*
X111179Y390652D01*
X115694Y390652D02*
X106663Y390652D01*
X100063Y394264D02*
X96450Y406908D01*
X100063Y394264D02*
X91032Y394264D01*
X93741Y397877D02*
X93741Y390652D01*
X85092Y388846D02*
X77867Y408714D01*
X66960Y406908D02*
X66835Y406906D01*
X66710Y406900D01*
X66585Y406891D01*
X66461Y406877D01*
X66337Y406860D01*
X66213Y406839D01*
X66091Y406814D01*
X65969Y406785D01*
X65848Y406753D01*
X65728Y406717D01*
X65609Y406677D01*
X65492Y406634D01*
X65376Y406587D01*
X65261Y406536D01*
X65149Y406482D01*
X65037Y406424D01*
X64928Y406364D01*
X64821Y406299D01*
X64715Y406232D01*
X64612Y406161D01*
X64511Y406087D01*
X64412Y406010D01*
X64316Y405930D01*
X64222Y405847D01*
X64131Y405762D01*
X64042Y405673D01*
X63957Y405582D01*
X63874Y405488D01*
X63794Y405392D01*
X63717Y405293D01*
X63643Y405192D01*
X63572Y405089D01*
X63505Y404983D01*
X63440Y404876D01*
X63380Y404767D01*
X63322Y404655D01*
X63268Y404543D01*
X63217Y404428D01*
X63170Y404312D01*
X63127Y404195D01*
X63087Y404076D01*
X63051Y403956D01*
X63019Y403835D01*
X62990Y403713D01*
X62965Y403591D01*
X62944Y403467D01*
X62927Y403343D01*
X62913Y403219D01*
X62904Y403094D01*
X62898Y402969D01*
X62896Y402844D01*
X66960Y406908D02*
X67103Y406906D01*
X67245Y406900D01*
X67388Y406890D01*
X67530Y406877D01*
X67671Y406859D01*
X67813Y406838D01*
X67953Y406813D01*
X68093Y406784D01*
X68232Y406751D01*
X68370Y406714D01*
X68507Y406674D01*
X68642Y406630D01*
X68777Y406582D01*
X68910Y406530D01*
X69042Y406475D01*
X69172Y406416D01*
X69300Y406354D01*
X69427Y406288D01*
X69552Y406219D01*
X69675Y406147D01*
X69796Y406071D01*
X69914Y405992D01*
X70031Y405909D01*
X70145Y405824D01*
X70257Y405735D01*
X70366Y405644D01*
X70473Y405549D01*
X70578Y405452D01*
X70679Y405351D01*
X70778Y405248D01*
X70874Y405143D01*
X70967Y405034D01*
X71057Y404923D01*
X71144Y404810D01*
X71228Y404695D01*
X71308Y404577D01*
X71386Y404457D01*
X71460Y404335D01*
X71530Y404211D01*
X71598Y404085D01*
X71661Y403957D01*
X71722Y403828D01*
X71779Y403697D01*
X71832Y403565D01*
X71881Y403431D01*
X71927Y403296D01*
X64251Y399683D02*
X64157Y399775D01*
X64067Y399869D01*
X63979Y399966D01*
X63894Y400066D01*
X63812Y400168D01*
X63733Y400273D01*
X63658Y400380D01*
X63586Y400489D01*
X63517Y400600D01*
X63451Y400714D01*
X63389Y400829D01*
X63330Y400946D01*
X63275Y401065D01*
X63224Y401185D01*
X63176Y401307D01*
X63131Y401430D01*
X63091Y401554D01*
X63054Y401680D01*
X63021Y401807D01*
X62992Y401934D01*
X62966Y402063D01*
X62945Y402192D01*
X62927Y402322D01*
X62914Y402452D01*
X62904Y402582D01*
X62898Y402713D01*
X62896Y402844D01*
X64250Y399683D02*
X71927Y390652D01*
X62896Y390652D01*
X56295Y398780D02*
X56291Y399100D01*
X56280Y399419D01*
X56261Y399739D01*
X56234Y400057D01*
X56200Y400375D01*
X56158Y400692D01*
X56108Y401008D01*
X56051Y401323D01*
X55987Y401636D01*
X55915Y401948D01*
X55836Y402258D01*
X55749Y402565D01*
X55655Y402871D01*
X55554Y403174D01*
X55445Y403475D01*
X55330Y403773D01*
X55207Y404069D01*
X55077Y404361D01*
X54940Y404650D01*
X54941Y404651D02*
X54902Y404759D01*
X54859Y404866D01*
X54813Y404971D01*
X54762Y405075D01*
X54709Y405177D01*
X54652Y405277D01*
X54591Y405375D01*
X54527Y405470D01*
X54460Y405564D01*
X54389Y405655D01*
X54316Y405744D01*
X54239Y405830D01*
X54160Y405913D01*
X54078Y405994D01*
X53993Y406072D01*
X53905Y406146D01*
X53815Y406218D01*
X53723Y406286D01*
X53628Y406352D01*
X53531Y406414D01*
X53432Y406472D01*
X53330Y406528D01*
X53228Y406579D01*
X53123Y406627D01*
X53017Y406672D01*
X52909Y406713D01*
X52800Y406750D01*
X52690Y406783D01*
X52578Y406812D01*
X52466Y406838D01*
X52353Y406860D01*
X52239Y406877D01*
X52125Y406891D01*
X52010Y406901D01*
X51895Y406907D01*
X51780Y406909D01*
X51780Y406908D02*
X51665Y406906D01*
X51550Y406900D01*
X51435Y406890D01*
X51321Y406876D01*
X51207Y406859D01*
X51094Y406837D01*
X50982Y406811D01*
X50870Y406782D01*
X50760Y406749D01*
X50651Y406712D01*
X50543Y406671D01*
X50437Y406626D01*
X50333Y406578D01*
X50230Y406527D01*
X50129Y406471D01*
X50029Y406413D01*
X49932Y406351D01*
X49838Y406286D01*
X49745Y406217D01*
X49655Y406145D01*
X49567Y406071D01*
X49482Y405993D01*
X49400Y405912D01*
X49321Y405829D01*
X49244Y405743D01*
X49171Y405654D01*
X49100Y405563D01*
X49033Y405469D01*
X48969Y405374D01*
X48908Y405276D01*
X48851Y405176D01*
X48798Y405074D01*
X48747Y404970D01*
X48701Y404865D01*
X48658Y404758D01*
X48619Y404650D01*
X48620Y404650D02*
X48483Y404361D01*
X48353Y404069D01*
X48230Y403773D01*
X48115Y403475D01*
X48006Y403174D01*
X47905Y402871D01*
X47811Y402565D01*
X47724Y402258D01*
X47645Y401948D01*
X47573Y401636D01*
X47509Y401323D01*
X47452Y401008D01*
X47402Y400692D01*
X47360Y400375D01*
X47326Y400057D01*
X47299Y399739D01*
X47280Y399419D01*
X47269Y399100D01*
X47265Y398780D01*
X56295Y398780D02*
X56291Y398460D01*
X56280Y398141D01*
X56261Y397821D01*
X56234Y397503D01*
X56200Y397185D01*
X56158Y396868D01*
X56108Y396552D01*
X56051Y396237D01*
X55987Y395924D01*
X55915Y395612D01*
X55836Y395302D01*
X55749Y394995D01*
X55655Y394689D01*
X55554Y394386D01*
X55445Y394085D01*
X55330Y393787D01*
X55207Y393491D01*
X55077Y393199D01*
X54940Y392910D01*
X54941Y392910D02*
X54902Y392802D01*
X54859Y392695D01*
X54813Y392590D01*
X54762Y392486D01*
X54709Y392384D01*
X54652Y392284D01*
X54591Y392186D01*
X54527Y392091D01*
X54460Y391997D01*
X54389Y391906D01*
X54316Y391817D01*
X54239Y391731D01*
X54160Y391648D01*
X54078Y391567D01*
X53993Y391489D01*
X53905Y391415D01*
X53815Y391343D01*
X53722Y391274D01*
X53628Y391209D01*
X53531Y391147D01*
X53431Y391089D01*
X53330Y391033D01*
X53228Y390982D01*
X53123Y390934D01*
X53017Y390889D01*
X52909Y390848D01*
X52800Y390811D01*
X52690Y390778D01*
X52578Y390749D01*
X52466Y390723D01*
X52353Y390701D01*
X52239Y390684D01*
X52125Y390670D01*
X52010Y390660D01*
X51895Y390654D01*
X51780Y390652D01*
X48620Y392910D02*
X48483Y393199D01*
X48353Y393491D01*
X48230Y393787D01*
X48115Y394085D01*
X48006Y394386D01*
X47905Y394689D01*
X47811Y394995D01*
X47724Y395302D01*
X47645Y395612D01*
X47573Y395924D01*
X47509Y396237D01*
X47452Y396552D01*
X47402Y396868D01*
X47360Y397185D01*
X47326Y397503D01*
X47299Y397821D01*
X47280Y398141D01*
X47269Y398460D01*
X47265Y398780D01*
X48619Y392910D02*
X48658Y392802D01*
X48701Y392695D01*
X48747Y392590D01*
X48798Y392486D01*
X48851Y392384D01*
X48909Y392284D01*
X48969Y392186D01*
X49033Y392091D01*
X49100Y391997D01*
X49171Y391906D01*
X49244Y391817D01*
X49321Y391731D01*
X49400Y391648D01*
X49482Y391567D01*
X49567Y391489D01*
X49655Y391415D01*
X49745Y391343D01*
X49838Y391274D01*
X49932Y391209D01*
X50029Y391147D01*
X50129Y391089D01*
X50230Y391033D01*
X50333Y390982D01*
X50437Y390934D01*
X50543Y390889D01*
X50651Y390848D01*
X50760Y390811D01*
X50870Y390778D01*
X50982Y390749D01*
X51094Y390723D01*
X51207Y390701D01*
X51321Y390684D01*
X51435Y390670D01*
X51550Y390660D01*
X51665Y390654D01*
X51780Y390652D01*
X55392Y394264D02*
X48168Y403296D01*
X40664Y403296D02*
X36149Y406908D01*
X36149Y390652D01*
X40664Y390652D02*
X31633Y390652D01*
X21421Y397877D02*
X16002Y397877D01*
X21421Y397877D02*
X21539Y397879D01*
X21657Y397885D01*
X21775Y397894D01*
X21892Y397908D01*
X22009Y397925D01*
X22126Y397946D01*
X22241Y397971D01*
X22356Y398000D01*
X22470Y398033D01*
X22582Y398069D01*
X22693Y398109D01*
X22803Y398152D01*
X22912Y398199D01*
X23019Y398249D01*
X23124Y398304D01*
X23227Y398361D01*
X23328Y398422D01*
X23428Y398486D01*
X23525Y398553D01*
X23620Y398623D01*
X23712Y398697D01*
X23803Y398773D01*
X23890Y398853D01*
X23975Y398935D01*
X24057Y399020D01*
X24137Y399107D01*
X24213Y399198D01*
X24287Y399290D01*
X24357Y399385D01*
X24424Y399482D01*
X24488Y399582D01*
X24549Y399683D01*
X24606Y399786D01*
X24661Y399891D01*
X24711Y399998D01*
X24758Y400107D01*
X24801Y400217D01*
X24841Y400328D01*
X24877Y400440D01*
X24910Y400554D01*
X24939Y400669D01*
X24964Y400784D01*
X24985Y400901D01*
X25002Y401018D01*
X25016Y401135D01*
X25025Y401253D01*
X25031Y401371D01*
X25033Y401489D01*
X25033Y402392D01*
X25034Y402392D02*
X25032Y402525D01*
X25026Y402657D01*
X25016Y402789D01*
X25003Y402921D01*
X24985Y403053D01*
X24964Y403183D01*
X24939Y403314D01*
X24910Y403443D01*
X24877Y403571D01*
X24841Y403699D01*
X24801Y403825D01*
X24757Y403950D01*
X24709Y404074D01*
X24658Y404196D01*
X24603Y404317D01*
X24545Y404436D01*
X24483Y404554D01*
X24418Y404669D01*
X24349Y404783D01*
X24278Y404894D01*
X24202Y405003D01*
X24124Y405110D01*
X24043Y405215D01*
X23958Y405317D01*
X23871Y405417D01*
X23781Y405514D01*
X23688Y405609D01*
X23592Y405700D01*
X23494Y405789D01*
X23393Y405875D01*
X23289Y405958D01*
X23183Y406038D01*
X23075Y406114D01*
X22965Y406188D01*
X22852Y406258D01*
X22738Y406325D01*
X22621Y406388D01*
X22503Y406448D01*
X22383Y406505D01*
X22261Y406558D01*
X22138Y406607D01*
X22014Y406653D01*
X21888Y406695D01*
X21761Y406733D01*
X21633Y406768D01*
X21504Y406799D01*
X21375Y406826D01*
X21244Y406849D01*
X21113Y406869D01*
X20981Y406884D01*
X20849Y406896D01*
X20717Y406904D01*
X20584Y406908D01*
X20452Y406908D01*
X20319Y406904D01*
X20187Y406896D01*
X20055Y406884D01*
X19923Y406869D01*
X19792Y406849D01*
X19661Y406826D01*
X19532Y406799D01*
X19403Y406768D01*
X19275Y406733D01*
X19148Y406695D01*
X19022Y406653D01*
X18898Y406607D01*
X18775Y406558D01*
X18653Y406505D01*
X18533Y406448D01*
X18415Y406388D01*
X18298Y406325D01*
X18184Y406258D01*
X18071Y406188D01*
X17961Y406114D01*
X17853Y406038D01*
X17747Y405958D01*
X17643Y405875D01*
X17542Y405789D01*
X17444Y405700D01*
X17348Y405609D01*
X17255Y405514D01*
X17165Y405417D01*
X17078Y405317D01*
X16993Y405215D01*
X16912Y405110D01*
X16834Y405003D01*
X16758Y404894D01*
X16687Y404783D01*
X16618Y404669D01*
X16553Y404554D01*
X16491Y404436D01*
X16433Y404317D01*
X16378Y404196D01*
X16327Y404074D01*
X16279Y403950D01*
X16235Y403825D01*
X16195Y403699D01*
X16159Y403571D01*
X16126Y403443D01*
X16097Y403314D01*
X16072Y403183D01*
X16051Y403053D01*
X16033Y402921D01*
X16020Y402789D01*
X16010Y402657D01*
X16004Y402525D01*
X16002Y402392D01*
X16002Y397877D01*
X16004Y397702D01*
X16010Y397528D01*
X16021Y397354D01*
X16036Y397180D01*
X16055Y397006D01*
X16078Y396833D01*
X16105Y396661D01*
X16137Y396489D01*
X16172Y396318D01*
X16212Y396148D01*
X16256Y395979D01*
X16304Y395811D01*
X16356Y395644D01*
X16412Y395479D01*
X16472Y395315D01*
X16535Y395152D01*
X16603Y394992D01*
X16675Y394832D01*
X16750Y394675D01*
X16830Y394519D01*
X16913Y394366D01*
X16999Y394214D01*
X17090Y394065D01*
X17184Y393918D01*
X17281Y393773D01*
X17382Y393630D01*
X17486Y393490D01*
X17594Y393353D01*
X17705Y393218D01*
X17819Y393086D01*
X17936Y392957D01*
X18057Y392830D01*
X18180Y392707D01*
X18307Y392586D01*
X18436Y392469D01*
X18568Y392355D01*
X18703Y392244D01*
X18840Y392136D01*
X18980Y392032D01*
X19123Y391931D01*
X19268Y391834D01*
X19415Y391740D01*
X19564Y391649D01*
X19716Y391563D01*
X19869Y391480D01*
X20025Y391400D01*
X20182Y391325D01*
X20342Y391253D01*
X20502Y391185D01*
X20665Y391122D01*
X20829Y391062D01*
X20994Y391006D01*
X21161Y390954D01*
X21329Y390906D01*
X21498Y390862D01*
X21668Y390822D01*
X21839Y390787D01*
X22011Y390755D01*
X22183Y390728D01*
X22356Y390705D01*
X22530Y390686D01*
X22704Y390671D01*
X22878Y390660D01*
X23052Y390654D01*
X23227Y390652D01*
M02*
