G04 EAGLE Gerber RS-274X export*
G75*
%MOMM*%
%FSLAX34Y34*%
%LPD*%
%INSoldermask Top*%
%IPPOS*%
%AMOC8*
5,1,8,0,0,1.08239X$1,22.5*%
G01*
%ADD10R,3.301600X1.401600*%
%ADD11R,1.401600X1.601600*%
%ADD12P,1.525737X8X112.500000*%
%ADD13R,1.601600X1.401600*%
%ADD14R,1.501600X1.101600*%
%ADD15R,1.101600X2.851600*%
%ADD16P,1.924489X8X22.500000*%
%ADD17P,1.742215X8X112.500000*%
%ADD18R,1.201600X1.601600*%
%ADD19P,1.924489X8X202.500000*%
%ADD20P,1.924489X8X112.500000*%
%ADD21R,1.101600X1.501600*%
%ADD22P,1.742215X8X22.500000*%
%ADD23P,3.482698X8X22.500000*%
%ADD24P,1.742215X8X292.500000*%
%ADD25P,3.482698X8X292.500000*%
%ADD26P,1.742215X8X202.500000*%
%ADD27P,3.482698X8X202.500000*%

G36*
X27192Y484820D02*
X27192Y484820D01*
X27235Y484832D01*
X27301Y484839D01*
X28984Y485290D01*
X29025Y485309D01*
X29088Y485328D01*
X30668Y486065D01*
X30705Y486091D01*
X30764Y486120D01*
X32192Y487120D01*
X32223Y487152D01*
X32276Y487191D01*
X33509Y488424D01*
X33534Y488460D01*
X33580Y488508D01*
X34580Y489936D01*
X34598Y489977D01*
X34635Y490032D01*
X35372Y491612D01*
X35383Y491655D01*
X35410Y491716D01*
X35861Y493399D01*
X35863Y493431D01*
X35870Y493452D01*
X35870Y493467D01*
X35880Y493508D01*
X36032Y495245D01*
X36028Y495289D01*
X36032Y495355D01*
X35880Y497092D01*
X35868Y497135D01*
X35861Y497201D01*
X35410Y498884D01*
X35391Y498925D01*
X35372Y498988D01*
X34635Y500568D01*
X34609Y500605D01*
X34580Y500664D01*
X33580Y502092D01*
X33548Y502123D01*
X33509Y502176D01*
X32276Y503409D01*
X32240Y503434D01*
X32192Y503480D01*
X30764Y504480D01*
X30723Y504498D01*
X30668Y504535D01*
X29088Y505272D01*
X29045Y505283D01*
X28984Y505310D01*
X27301Y505761D01*
X27256Y505764D01*
X27192Y505780D01*
X25455Y505932D01*
X25411Y505928D01*
X25345Y505932D01*
X23608Y505780D01*
X23565Y505768D01*
X23499Y505761D01*
X21816Y505310D01*
X21775Y505291D01*
X21712Y505272D01*
X20132Y504535D01*
X20095Y504509D01*
X20036Y504480D01*
X18608Y503480D01*
X18577Y503448D01*
X18524Y503409D01*
X17291Y502176D01*
X17266Y502140D01*
X17220Y502092D01*
X16220Y500664D01*
X16202Y500623D01*
X16165Y500568D01*
X15428Y498988D01*
X15417Y498945D01*
X15390Y498884D01*
X14939Y497201D01*
X14936Y497156D01*
X14920Y497092D01*
X14768Y495355D01*
X14772Y495311D01*
X14768Y495245D01*
X14920Y493508D01*
X14932Y493465D01*
X14936Y493431D01*
X14936Y493415D01*
X14938Y493410D01*
X14939Y493399D01*
X15390Y491716D01*
X15409Y491675D01*
X15428Y491612D01*
X16165Y490032D01*
X16191Y489995D01*
X16220Y489936D01*
X17220Y488508D01*
X17252Y488477D01*
X17291Y488424D01*
X18524Y487191D01*
X18560Y487166D01*
X18608Y487120D01*
X20036Y486120D01*
X20077Y486102D01*
X20132Y486065D01*
X21712Y485328D01*
X21755Y485317D01*
X21816Y485290D01*
X23499Y484839D01*
X23544Y484836D01*
X23608Y484820D01*
X25345Y484668D01*
X25389Y484672D01*
X25455Y484668D01*
X27192Y484820D01*
G37*
G36*
X674892Y484820D02*
X674892Y484820D01*
X674935Y484832D01*
X675001Y484839D01*
X676684Y485290D01*
X676725Y485309D01*
X676788Y485328D01*
X678368Y486065D01*
X678405Y486091D01*
X678464Y486120D01*
X679892Y487120D01*
X679923Y487152D01*
X679976Y487191D01*
X681209Y488424D01*
X681234Y488460D01*
X681280Y488508D01*
X682280Y489936D01*
X682298Y489977D01*
X682335Y490032D01*
X683072Y491612D01*
X683083Y491655D01*
X683110Y491716D01*
X683561Y493399D01*
X683563Y493431D01*
X683570Y493452D01*
X683570Y493467D01*
X683580Y493508D01*
X683732Y495245D01*
X683728Y495289D01*
X683732Y495355D01*
X683580Y497092D01*
X683568Y497135D01*
X683561Y497201D01*
X683110Y498884D01*
X683091Y498925D01*
X683072Y498988D01*
X682335Y500568D01*
X682309Y500605D01*
X682280Y500664D01*
X681280Y502092D01*
X681248Y502123D01*
X681209Y502176D01*
X679976Y503409D01*
X679940Y503434D01*
X679892Y503480D01*
X678464Y504480D01*
X678423Y504498D01*
X678368Y504535D01*
X676788Y505272D01*
X676745Y505283D01*
X676684Y505310D01*
X675001Y505761D01*
X674956Y505764D01*
X674892Y505780D01*
X673155Y505932D01*
X673111Y505928D01*
X673045Y505932D01*
X671308Y505780D01*
X671265Y505768D01*
X671199Y505761D01*
X669516Y505310D01*
X669475Y505291D01*
X669412Y505272D01*
X667832Y504535D01*
X667795Y504509D01*
X667736Y504480D01*
X666308Y503480D01*
X666277Y503448D01*
X666224Y503409D01*
X664991Y502176D01*
X664966Y502140D01*
X664920Y502092D01*
X663920Y500664D01*
X663902Y500623D01*
X663865Y500568D01*
X663128Y498988D01*
X663117Y498945D01*
X663090Y498884D01*
X662639Y497201D01*
X662636Y497156D01*
X662620Y497092D01*
X662468Y495355D01*
X662472Y495311D01*
X662468Y495245D01*
X662620Y493508D01*
X662632Y493465D01*
X662636Y493431D01*
X662636Y493415D01*
X662638Y493410D01*
X662639Y493399D01*
X663090Y491716D01*
X663109Y491675D01*
X663128Y491612D01*
X663865Y490032D01*
X663891Y489995D01*
X663920Y489936D01*
X664920Y488508D01*
X664952Y488477D01*
X664991Y488424D01*
X666224Y487191D01*
X666260Y487166D01*
X666308Y487120D01*
X667736Y486120D01*
X667777Y486102D01*
X667832Y486065D01*
X669412Y485328D01*
X669455Y485317D01*
X669516Y485290D01*
X671199Y484839D01*
X671244Y484836D01*
X671308Y484820D01*
X673045Y484668D01*
X673089Y484672D01*
X673155Y484668D01*
X674892Y484820D01*
G37*
G36*
X27192Y21270D02*
X27192Y21270D01*
X27235Y21282D01*
X27301Y21289D01*
X28984Y21740D01*
X29025Y21759D01*
X29088Y21778D01*
X30668Y22515D01*
X30705Y22541D01*
X30764Y22570D01*
X32192Y23570D01*
X32223Y23602D01*
X32276Y23641D01*
X33509Y24874D01*
X33534Y24910D01*
X33580Y24958D01*
X34580Y26386D01*
X34598Y26427D01*
X34635Y26482D01*
X35372Y28062D01*
X35383Y28105D01*
X35410Y28166D01*
X35861Y29849D01*
X35863Y29881D01*
X35870Y29902D01*
X35870Y29917D01*
X35880Y29958D01*
X36032Y31695D01*
X36028Y31739D01*
X36032Y31805D01*
X35880Y33542D01*
X35868Y33585D01*
X35861Y33651D01*
X35410Y35334D01*
X35391Y35375D01*
X35372Y35438D01*
X34635Y37018D01*
X34609Y37055D01*
X34580Y37114D01*
X33580Y38542D01*
X33548Y38573D01*
X33509Y38626D01*
X32276Y39859D01*
X32240Y39884D01*
X32192Y39930D01*
X30764Y40930D01*
X30723Y40948D01*
X30668Y40985D01*
X29088Y41722D01*
X29045Y41733D01*
X28984Y41760D01*
X27301Y42211D01*
X27256Y42214D01*
X27192Y42230D01*
X25455Y42382D01*
X25411Y42378D01*
X25345Y42382D01*
X23608Y42230D01*
X23565Y42218D01*
X23499Y42211D01*
X21816Y41760D01*
X21775Y41741D01*
X21712Y41722D01*
X20132Y40985D01*
X20095Y40959D01*
X20036Y40930D01*
X18608Y39930D01*
X18577Y39898D01*
X18524Y39859D01*
X17291Y38626D01*
X17266Y38590D01*
X17220Y38542D01*
X16220Y37114D01*
X16202Y37073D01*
X16165Y37018D01*
X15428Y35438D01*
X15417Y35395D01*
X15390Y35334D01*
X14939Y33651D01*
X14936Y33606D01*
X14920Y33542D01*
X14768Y31805D01*
X14772Y31761D01*
X14768Y31695D01*
X14920Y29958D01*
X14932Y29915D01*
X14936Y29881D01*
X14936Y29865D01*
X14938Y29860D01*
X14939Y29849D01*
X15390Y28166D01*
X15409Y28125D01*
X15428Y28062D01*
X16165Y26482D01*
X16191Y26445D01*
X16220Y26386D01*
X17220Y24958D01*
X17252Y24927D01*
X17291Y24874D01*
X18524Y23641D01*
X18560Y23616D01*
X18608Y23570D01*
X20036Y22570D01*
X20077Y22552D01*
X20132Y22515D01*
X21712Y21778D01*
X21755Y21767D01*
X21816Y21740D01*
X23499Y21289D01*
X23544Y21286D01*
X23608Y21270D01*
X25345Y21118D01*
X25389Y21122D01*
X25455Y21118D01*
X27192Y21270D01*
G37*
D10*
X393700Y280350D03*
X393700Y367350D03*
D11*
X663550Y469900D03*
X644550Y469900D03*
X669900Y323850D03*
X650900Y323850D03*
X669900Y171450D03*
X650900Y171450D03*
D12*
X177800Y247650D03*
X177800Y222250D03*
X177800Y196850D03*
X177800Y273050D03*
X177800Y298450D03*
X177800Y323850D03*
X25400Y196850D03*
X25400Y222250D03*
X25400Y247650D03*
X25400Y273050D03*
X25400Y298450D03*
X25400Y323850D03*
D13*
X406400Y225450D03*
X406400Y244450D03*
X431800Y225450D03*
X431800Y244450D03*
X457200Y225450D03*
X457200Y244450D03*
X285750Y161900D03*
X285750Y142900D03*
X349250Y130200D03*
X349250Y149200D03*
D11*
X308000Y88900D03*
X327000Y88900D03*
X225450Y190500D03*
X244450Y190500D03*
X225450Y215900D03*
X244450Y215900D03*
X225450Y241300D03*
X244450Y241300D03*
X225450Y266700D03*
X244450Y266700D03*
X225450Y292100D03*
X244450Y292100D03*
X225450Y317500D03*
X244450Y317500D03*
X225450Y342900D03*
X244450Y342900D03*
X225450Y368300D03*
X244450Y368300D03*
D14*
X188800Y136550D03*
X188800Y155550D03*
X166800Y146050D03*
X188800Y98450D03*
X188800Y117450D03*
X166800Y107950D03*
X188800Y60350D03*
X188800Y79350D03*
X166800Y69850D03*
X188800Y22250D03*
X188800Y41250D03*
X166800Y31750D03*
D15*
X640400Y384000D03*
X680400Y384000D03*
X680400Y441500D03*
X640400Y441500D03*
X640400Y231600D03*
X680400Y231600D03*
X680400Y289100D03*
X640400Y289100D03*
X640400Y79200D03*
X680400Y79200D03*
X680400Y136700D03*
X640400Y136700D03*
D16*
X533400Y501650D03*
X508000Y19050D03*
X558800Y501650D03*
X584200Y501650D03*
X609600Y501650D03*
X635000Y501650D03*
X508000Y501650D03*
X482600Y501650D03*
X457200Y501650D03*
X416560Y501650D03*
X391160Y501650D03*
X365760Y501650D03*
X340360Y501650D03*
X314960Y501650D03*
X289560Y501650D03*
X264160Y501650D03*
X238760Y501650D03*
X533400Y19050D03*
X558800Y19050D03*
X584200Y19050D03*
X609600Y19050D03*
X635000Y19050D03*
X457200Y19050D03*
X431800Y19050D03*
X406400Y19050D03*
X381000Y19050D03*
X355600Y19050D03*
X330200Y19050D03*
D17*
X406400Y120650D03*
X431800Y120650D03*
X457200Y120650D03*
X482600Y120650D03*
D16*
X304800Y19050D03*
X213360Y501650D03*
X187960Y501650D03*
D18*
X310000Y154700D03*
X310000Y124700D03*
X325000Y124700D03*
X325000Y154700D03*
D19*
X101600Y222250D03*
X101600Y196850D03*
X101600Y247650D03*
X101600Y273050D03*
X101600Y298450D03*
X101600Y323850D03*
D20*
X88900Y501650D03*
X63500Y501650D03*
X114300Y501650D03*
X139700Y501650D03*
D21*
X441300Y417400D03*
X422300Y417400D03*
X431800Y395400D03*
D16*
X406400Y171450D03*
X406400Y196850D03*
X431800Y171450D03*
X431800Y196850D03*
X457200Y171450D03*
X457200Y196850D03*
D22*
X533800Y336400D03*
X558800Y336400D03*
X583800Y336400D03*
D23*
X512300Y406400D03*
X605300Y406400D03*
D24*
X488800Y285350D03*
X488800Y260350D03*
X488800Y235350D03*
D25*
X558800Y306850D03*
X558800Y213850D03*
D26*
X583800Y184300D03*
X558800Y184300D03*
X533800Y184300D03*
D27*
X605300Y114300D03*
X512300Y114300D03*
D13*
X457200Y295300D03*
X457200Y314300D03*
D11*
X225450Y139700D03*
X244450Y139700D03*
X225450Y63500D03*
X244450Y63500D03*
X225450Y101600D03*
X244450Y101600D03*
X225450Y25400D03*
X244450Y25400D03*
D13*
X463550Y409550D03*
X463550Y390550D03*
M02*
